<svg width="100" height="42" viewBox="0 0 100 42" fill="none" xmlns="http://www.w3.org/2000/svg">
<rect x="58" width="42" height="42" rx="8" fill="#0D0D0D" fill-opacity="0.4"/>
<g opacity="0.4">
<path d="M83.0868 16.8492V11.5089C83.2948 11.3493 83.4346 11.1263 83.4346 10.868C83.4343 10.3903 82.9706 10 82.3983 10C81.8224 10 81.3624 10.3903 81.3624 10.868C81.3624 11.1266 81.5022 11.3493 81.7102 11.5111V16.7731H79.6886V14.8532C79.6886 14.5346 79.3786 14.2768 79.0002 14.2768C78.6174 14.2768 78.3107 14.5346 78.3107 14.8532V16.7731H76.7709V15.7126C76.7709 15.2344 76.3066 14.8477 75.7382 14.8477C75.1693 14.8477 74.7046 15.2344 74.7046 15.7126V16.9371C74.2932 17.1385 74 17.4986 74 17.9254V22.5953C74 23.2312 74.2113 24.0361 74.4713 24.3857C74.7312 24.7367 74.9425 25.5403 74.9425 26.1778V30.8441C74.9409 31.4786 75.5619 32 76.3178 32H81.6822C82.4388 32 83.0591 31.4786 83.0591 30.8427V26.1759C83.0591 25.5386 83.2704 24.7351 83.5294 24.3855C83.7884 24.0333 84 23.2309 84 22.5936V17.9254C84 17.427 83.615 17.0124 83.0868 16.8492ZM83.0595 22.4523H74.9412V21.8736H83.0591L83.0595 22.4523ZM83.0595 21.2375H74.9412V20.6596H83.0591L83.0595 21.2375ZM83.0595 20.0201H74.9412V19.4423H83.0591L83.0595 20.0201ZM83.0595 18.8056H74.9412V18.2261H83.0591L83.0595 18.8056Z" fill="white"/>
</g>
<rect x="0.5" y="0.5" width="41" height="41" rx="7.5" fill="#0D0D0D" fill-opacity="0.4" stroke="url(#paint0_linear_23_200)"/>
<path fill-rule="evenodd" clip-rule="evenodd" d="M21.1748 24.2174H20.825C18.4217 24.2174 16.4736 22.2927 16.4736 19.9203V15.2971C16.4736 12.9237 18.4217 11 20.825 11H21.1748C23.5781 11 25.5272 12.9237 25.5272 15.2971V19.9203C25.5272 22.2927 23.5781 24.2174 21.1748 24.2174ZM27.5626 19.7829C27.5626 19.2539 27.9966 18.8263 28.5313 18.8263C29.066 18.8263 29.5 19.2539 29.5 19.7829C29.5 24.0866 26.2006 27.6404 21.9692 28.1178V30.0434C21.9692 30.5714 21.5352 31 21.0005 31C20.4648 31 20.0318 30.5714 20.0318 30.0434V28.1178C15.7994 27.6404 12.5 24.0866 12.5 19.7829C12.5 19.2539 12.934 18.8263 13.4687 18.8263C14.0034 18.8263 14.4374 19.2539 14.4374 19.7829C14.4374 23.3558 17.3814 26.2629 21.0005 26.2629C24.6186 26.2629 27.5626 23.3558 27.5626 19.7829Z" fill="#FED500"/>
<defs>
<linearGradient id="paint0_linear_23_200" x1="21" y1="0" x2="21" y2="42" gradientUnits="userSpaceOnUse">
<stop stop-color="#FED500"/>
<stop offset="1" stop-color="#FED500" stop-opacity="0"/>
</linearGradient>
</defs>
</svg>
