<svg width="93" height="24" viewBox="0 0 93 24" fill="none" xmlns="http://www.w3.org/2000/svg">
<path d="M32.496 17L32.496 15.56L36.4 11.576C37.3493 10.6267 37.824 9.80533 37.824 9.112C37.824 8.568 37.6587 8.14667 37.328 7.848C37.008 7.53867 36.5973 7.384 36.096 7.384C35.1573 7.384 34.464 7.848 34.016 8.776L32.464 7.864C32.816 7.11733 33.312 6.552 33.952 6.168C34.592 5.784 35.3013 5.592 36.08 5.592C37.0613 5.592 37.904 5.90133 38.608 6.52C39.312 7.13867 39.664 7.98133 39.664 9.048C39.664 10.1893 39.0293 11.4053 37.76 12.696L35.232 15.224L39.872 15.224L39.872 17L32.496 17ZM40.7162 5.8L47.8362 5.8L47.8362 7.4L43.9002 17L41.9642 17L45.8362 7.56L40.7162 7.56L40.7162 5.8ZM59.728 11.176C60.8267 11.784 61.376 12.6907 61.376 13.896C61.376 14.92 61.0187 15.7307 60.304 16.328C59.5893 16.9147 58.64 17.208 57.456 17.208C56.272 17.208 55.3173 16.9147 54.592 16.328C53.8773 15.7307 53.52 14.92 53.52 13.896C53.52 13.32 53.664 12.7973 53.952 12.328C54.24 11.848 54.6453 11.464 55.168 11.176C54.3253 10.6213 53.904 9.832 53.904 8.808C53.904 7.784 54.2453 6.99467 54.928 6.44C55.6107 5.87467 56.4533 5.592 57.456 5.592C58.448 5.592 59.2853 5.87467 59.968 6.44C60.6613 6.99467 61.008 7.784 61.008 8.808C61.008 9.832 60.5813 10.6213 59.728 11.176ZM57.456 7.336C56.9547 7.336 56.544 7.46933 56.224 7.736C55.904 8.00267 55.744 8.38667 55.744 8.888C55.744 9.368 55.904 9.74667 56.224 10.024C56.5547 10.3013 56.9653 10.44 57.456 10.44C57.936 10.44 58.3413 10.3013 58.672 10.024C59.0027 9.74667 59.168 9.368 59.168 8.888C59.168 8.38667 59.0027 8.00267 58.672 7.736C58.352 7.46933 57.9467 7.336 57.456 7.336ZM57.456 15.464C58.0747 15.464 58.576 15.3147 58.96 15.016C59.344 14.7067 59.536 14.2747 59.536 13.72C59.536 13.1653 59.344 12.7387 58.96 12.44C58.576 12.1307 58.0747 11.976 57.456 11.976C56.8267 11.976 56.32 12.1307 55.936 12.44C55.552 12.7387 55.36 13.1653 55.36 13.72C55.36 14.2747 55.552 14.7067 55.936 15.016C56.32 15.3147 56.8267 15.464 57.456 15.464ZM67.3584 10.376C68.169 10.568 68.825 10.9467 69.3264 11.512C69.8384 12.0667 70.0944 12.7653 70.0944 13.608C70.0944 14.728 69.7157 15.608 68.9584 16.248C68.201 16.888 67.273 17.208 66.1744 17.208C65.321 17.208 64.553 17.0107 63.8704 16.616C63.1984 16.2213 62.713 15.6453 62.4144 14.888L63.9824 13.976C64.313 14.936 65.0437 15.416 66.1744 15.416C66.8144 15.416 67.321 15.256 67.6944 14.936C68.0677 14.6053 68.2544 14.1627 68.2544 13.608C68.2544 13.0533 68.0677 12.616 67.6944 12.296C67.321 11.976 66.8144 11.816 66.1744 11.816L65.7584 11.816L65.0224 10.712L67.4384 7.528L62.7504 7.528L62.7504 5.8L69.6304 5.8L69.6304 7.368L67.3584 10.376ZM79.0606 9.416C79.0606 10.2693 78.8366 11.0213 78.3886 11.672L74.8526 17L72.7406 17L75.3006 13.24L75.1086 13.24C73.946 13.24 72.9913 12.888 72.2446 12.184C71.5086 11.4693 71.1406 10.5467 71.1406 9.416C71.1406 8.28533 71.5086 7.368 72.2446 6.664C72.9913 5.94933 73.946 5.592 75.1086 5.592C76.2713 5.592 77.2206 5.94933 77.9566 6.664C78.6926 7.368 79.0606 8.28533 79.0606 9.416ZM72.9806 9.416C72.9806 10.0347 73.178 10.536 73.5726 10.92C73.978 11.304 74.49 11.496 75.1086 11.496C75.7273 11.496 76.234 11.3093 76.6286 10.936C77.0233 10.552 77.2206 10.0453 77.2206 9.416C77.2206 8.78667 77.0233 8.28533 76.6286 7.912C76.234 7.528 75.7273 7.336 75.1086 7.336C74.49 7.336 73.978 7.528 73.5726 7.912C73.178 8.28533 72.9806 8.78667 72.9806 9.416Z" fill="white"/>
<path d="M92.4034 13.928C92.4034 14.8347 92.11 15.576 91.5234 16.152C90.9474 16.7173 90.19 17.0587 89.2514 17.176L89.2514 18.6L88.2114 18.6L88.2114 17.192C87.326 17.1387 86.5687 16.8987 85.9394 16.472C85.31 16.0453 84.8567 15.464 84.5794 14.728L86.1634 13.816C86.5367 14.7547 87.2194 15.2773 88.2114 15.384L88.2114 12.056C87.7314 11.8747 87.342 11.7147 87.0434 11.576C86.7447 11.4267 86.4247 11.224 86.0834 10.968C85.7527 10.712 85.502 10.4027 85.3314 10.04C85.1714 9.66667 85.0914 9.23467 85.0914 8.744C85.0914 7.848 85.39 7.12267 85.9874 6.568C86.5847 6.01333 87.326 5.69333 88.2114 5.608L88.2114 4.2L89.2514 4.2L89.2514 5.624C90.6807 5.816 91.6727 6.54667 92.2274 7.816L90.6754 8.712C90.398 8.01867 89.9234 7.59733 89.2514 7.448L89.2514 10.616C89.5927 10.744 89.8487 10.8453 90.0194 10.92C90.2007 10.9947 90.4354 11.1067 90.7234 11.256C91.022 11.4053 91.2514 11.5547 91.4114 11.704C91.5714 11.8533 91.7367 12.0347 91.9074 12.248C92.0887 12.4613 92.2167 12.712 92.2914 13C92.366 13.2773 92.4034 13.5867 92.4034 13.928ZM86.9314 8.744C86.9314 9.07467 87.0274 9.34667 87.2194 9.56C87.422 9.77333 87.7527 9.98667 88.2114 10.2L88.2114 7.416C87.8167 7.48 87.502 7.62933 87.2674 7.864C87.0434 8.09867 86.9314 8.392 86.9314 8.744ZM89.2514 15.368C89.678 15.2827 90.0034 15.112 90.2274 14.856C90.4514 14.6 90.5634 14.296 90.5634 13.944C90.5634 13.592 90.4567 13.3093 90.2434 13.096C90.03 12.872 89.6994 12.6587 89.2514 12.456L89.2514 15.368Z" fill="#FED500"/>
<path fill-rule="evenodd" clip-rule="evenodd" d="M2 8C2 5.79086 3.79086 4 6 4H18C20.2091 4 22 5.79086 22 8V8.5C22 8.77614 21.7761 9 21.5 9L2.5 9C2.22386 9 2 8.77614 2 8.5V8ZM2.5 11C2.22386 11 2 11.2239 2 11.5V16C2 18.2091 3.79086 20 6 20H18C20.2091 20 22 18.2091 22 16V11.5C22 11.2239 21.7761 11 21.5 11L2.5 11ZM13 15C13 14.4477 13.4477 14 14 14H17C17.5523 14 18 14.4477 18 15C18 15.5523 17.5523 16 17 16H14C13.4477 16 13 15.5523 13 15Z" fill="#FED500"/>
</svg>
