<svg width="206" height="197" viewBox="0 0 206 197" fill="none" xmlns="http://www.w3.org/2000/svg">
<g opacity="0.4">
<mask id="path-1-inside-1_23_161" fill="white">
<path d="M39.721 194.279C36.7096 197.29 31.806 197.306 28.9995 194.103C20.223 184.086 13.2083 172.63 8.27486 160.219C2.39055 145.415 -0.408873 129.566 0.0481644 113.643C0.505202 97.7199 4.20907 82.0577 10.9328 67.6164C17.6565 53.1751 27.2584 40.2589 39.15 29.6594C51.0416 19.06 64.9725 11.0005 80.0888 5.97494C95.2052 0.949389 111.189 -0.936365 127.059 0.433242C142.93 1.80285 158.354 6.39897 172.386 13.9399C184.15 20.2623 194.729 28.5429 203.674 38.409C206.535 41.5638 205.957 46.4333 202.621 49.0799C199.285 51.7265 194.455 51.1446 191.563 48.0186C183.944 39.7826 175 32.8525 165.086 27.5243C152.903 20.9774 139.512 16.9871 125.733 15.798C111.955 14.6089 98.0779 16.2461 84.9541 20.6092C71.8303 24.9723 59.7356 31.9695 49.4115 41.1718C39.0873 50.3742 30.751 61.5879 24.9136 74.1257C19.0761 86.6635 15.8605 100.261 15.4637 114.086C15.0669 127.91 17.4973 141.67 22.606 154.522C26.7636 164.981 32.6238 174.66 39.933 183.173C42.7072 186.404 42.7323 191.268 39.721 194.279Z"/>
</mask>
<path d="M39.721 194.279C36.7096 197.29 31.806 197.306 28.9995 194.103C20.223 184.086 13.2083 172.63 8.27486 160.219C2.39055 145.415 -0.408873 129.566 0.0481644 113.643C0.505202 97.7199 4.20907 82.0577 10.9328 67.6164C17.6565 53.1751 27.2584 40.2589 39.15 29.6594C51.0416 19.06 64.9725 11.0005 80.0888 5.97494C95.2052 0.949389 111.189 -0.936365 127.059 0.433242C142.93 1.80285 158.354 6.39897 172.386 13.9399C184.15 20.2623 194.729 28.5429 203.674 38.409C206.535 41.5638 205.957 46.4333 202.621 49.0799C199.285 51.7265 194.455 51.1446 191.563 48.0186C183.944 39.7826 175 32.8525 165.086 27.5243C152.903 20.9774 139.512 16.9871 125.733 15.798C111.955 14.6089 98.0779 16.2461 84.9541 20.6092C71.8303 24.9723 59.7356 31.9695 49.4115 41.1718C39.0873 50.3742 30.751 61.5879 24.9136 74.1257C19.0761 86.6635 15.8605 100.261 15.4637 114.086C15.0669 127.91 17.4973 141.67 22.606 154.522C26.7636 164.981 32.6238 174.66 39.933 183.173C42.7072 186.404 42.7323 191.268 39.721 194.279Z" fill="#0D0D0D" stroke="#FED500" stroke-width="2" mask="url(#path-1-inside-1_23_161)"/>
</g>
</svg>
