<svg width="307" height="56" viewBox="0 0 307 56" fill="none" xmlns="http://www.w3.org/2000/svg">
<g filter="url(#filter0_b_23_306)">
<rect width="307" height="56" rx="8" fill="#0D0D0D" fill-opacity="0.4"/>
</g>
<g filter="url(#filter1_d_23_306)">
<path fill-rule="evenodd" clip-rule="evenodd" d="M23.67 18H32.34C35.73 18 38 20.38 38 23.92V32.091C38 35.62 35.73 38 32.34 38H23.67C20.28 38 18 35.62 18 32.091V23.92C18 20.38 20.28 18 23.67 18ZM27.43 30.99L32.18 26.24C32.52 25.9 32.52 25.35 32.18 25C31.84 24.66 31.28 24.66 30.94 25L26.81 29.13L25.06 27.38C24.72 27.04 24.16 27.04 23.82 27.38C23.48 27.72 23.48 28.27 23.82 28.62L26.2 30.99C26.37 31.16 26.59 31.24 26.81 31.24C27.04 31.24 27.26 31.16 27.43 30.99Z" fill="#31FC45"/>
</g>
<path d="M62.552 27.918C63.028 28.1233 63.406 28.436 63.686 28.856C63.9753 29.2667 64.12 29.738 64.12 30.27C64.12 31.026 63.854 31.67 63.322 32.202C62.79 32.734 62.146 33 61.39 33L57.12 33L57.12 23.2L61.068 23.2C61.796 23.2 62.4167 23.4613 62.93 23.984C63.4433 24.4973 63.7 25.1133 63.7 25.832C63.7 26.7467 63.3173 27.442 62.552 27.918ZM61.068 24.124L58.1 24.124L58.1 27.54L61.068 27.54C61.5253 27.54 61.9127 27.3767 62.23 27.05C62.5567 26.714 62.72 26.308 62.72 25.832C62.72 25.3653 62.5567 24.964 62.23 24.628C61.9127 24.292 61.5253 24.124 61.068 24.124ZM61.39 32.076C61.8753 32.076 62.286 31.9033 62.622 31.558C62.9673 31.2033 63.14 30.774 63.14 30.27C63.14 29.7753 62.9673 29.3507 62.622 28.996C62.286 28.6413 61.8753 28.464 61.39 28.464L58.1 28.464L58.1 32.076L61.39 32.076ZM71.0376 26L71.8216 26L71.8216 33L70.8976 33L70.8976 27.61L66.7256 33L65.9416 33L65.9416 26L66.8656 26L66.8656 31.39L71.0376 26ZM83.7016 32.118C82.9923 32.818 82.1243 33.168 81.0976 33.168C80.071 33.168 79.1983 32.818 78.4796 32.118C77.7703 31.4087 77.4156 30.536 77.4156 29.5C77.4156 28.464 77.7703 27.596 78.4796 26.896C79.1983 26.1867 80.071 25.832 81.0976 25.832C82.1243 25.832 82.9923 26.1867 83.7016 26.896C84.4203 27.596 84.7796 28.464 84.7796 29.5C84.7796 30.536 84.4203 31.4087 83.7016 32.118ZM79.1376 31.474C79.6696 32.006 80.323 32.272 81.0976 32.272C81.8723 32.272 82.5256 32.006 83.0576 31.474C83.5896 30.9327 83.8556 30.2747 83.8556 29.5C83.8556 28.7253 83.5896 28.072 83.0576 27.54C82.5256 26.9987 81.8723 26.728 81.0976 26.728C80.323 26.728 79.6696 26.9987 79.1376 27.54C78.6056 28.072 78.3396 28.7253 78.3396 29.5C78.3396 30.2747 78.6056 30.9327 79.1376 31.474ZM91.3724 26L91.3724 26.896L88.8944 26.896L88.8944 33L87.9704 33L87.9704 26.896L85.4924 26.896L85.4924 26L91.3724 26ZM96.5304 25.832C97.5291 25.832 98.3784 26.1867 99.0784 26.896C99.7878 27.6053 100.142 28.4733 100.142 29.5C100.142 30.5267 99.7878 31.3947 99.0784 32.104C98.3784 32.8133 97.5291 33.168 96.5304 33.168C95.2891 33.168 94.3464 32.6547 93.7024 31.628L93.7024 35.8L92.7784 35.8L92.7784 26L93.7024 26L93.7024 27.372C94.3464 26.3453 95.2891 25.832 96.5304 25.832ZM94.5004 31.474C95.0324 32.006 95.6858 32.272 96.4604 32.272C97.2351 32.272 97.8884 32.006 98.4204 31.474C98.9524 30.9327 99.2184 30.2747 99.2184 29.5C99.2184 28.7253 98.9524 28.072 98.4204 27.54C97.8884 26.9987 97.2351 26.728 96.4604 26.728C95.6858 26.728 95.0324 26.9987 94.5004 27.54C93.9684 28.072 93.7024 28.7253 93.7024 29.5C93.7024 30.2747 93.9684 30.9327 94.5004 31.474ZM107.055 26L107.839 26L107.839 33L106.915 33L106.915 27.61L102.743 33L101.959 33L101.959 26L102.883 26L102.883 31.39L107.055 26ZM116.933 26L116.933 33L116.009 33L116.009 27.414L113.559 31.39L113.447 31.39L110.997 27.414L110.997 33L110.073 33L110.073 26L111.137 26L113.503 29.836L115.869 26L116.933 26ZM125.191 26L126.115 26L126.115 33L125.191 33L125.191 31.628C124.547 32.6547 123.605 33.168 122.363 33.168C121.365 33.168 120.511 32.8133 119.801 32.104C119.101 31.3947 118.751 30.5267 118.751 29.5C118.751 28.4733 119.101 27.6053 119.801 26.896C120.511 26.1867 121.365 25.832 122.363 25.832C123.605 25.832 124.547 26.3453 125.191 27.372L125.191 26ZM120.473 31.474C121.005 32.006 121.659 32.272 122.433 32.272C123.208 32.272 123.861 32.006 124.393 31.474C124.925 30.9327 125.191 30.2747 125.191 29.5C125.191 28.7253 124.925 28.072 124.393 27.54C123.861 26.9987 123.208 26.728 122.433 26.728C121.659 26.728 121.005 26.9987 120.473 27.54C119.941 28.072 119.675 28.7253 119.675 29.5C119.675 30.2747 119.941 30.9327 120.473 31.474ZM134.092 26L134.092 33L133.168 33L133.168 26.896L130.004 26.896L130.004 30.018C130.004 31.1847 129.78 31.9873 129.332 32.426C128.893 32.8647 128.286 33.056 127.512 33L127.512 32.132C128.044 32.188 128.436 32.062 128.688 31.754C128.949 31.446 129.08 30.8673 129.08 30.018L129.08 26L134.092 26ZM141.425 26L142.209 26L142.209 33L141.285 33L141.285 27.61L137.113 33L136.329 33L136.329 26L137.253 26L137.253 31.39L141.425 26ZM147.677 33L147.677 31.74L151.093 28.254C151.923 27.4233 152.339 26.7047 152.339 26.098C152.339 25.622 152.194 25.2533 151.905 24.992C151.625 24.7213 151.265 24.586 150.827 24.586C150.005 24.586 149.399 24.992 149.007 25.804L147.649 25.006C147.957 24.3527 148.391 23.858 148.951 23.522C149.511 23.186 150.131 23.018 150.813 23.018C151.671 23.018 152.409 23.2887 153.025 23.83C153.641 24.3713 153.949 25.1087 153.949 26.042C153.949 27.0407 153.393 28.1047 152.283 29.234L150.071 31.446L154.131 31.446L154.131 33L147.677 33ZM162.034 31.796C161.362 32.72 160.42 33.182 159.206 33.182C157.993 33.182 157.046 32.72 156.364 31.796C155.692 30.872 155.356 29.64 155.356 28.1C155.356 26.56 155.692 25.328 156.364 24.404C157.046 23.48 157.993 23.018 159.206 23.018C160.42 23.018 161.362 23.48 162.034 24.404C162.716 25.328 163.056 26.56 163.056 28.1C163.056 29.64 162.716 30.872 162.034 31.796ZM159.206 31.614C159.934 31.614 160.49 31.3107 160.872 30.704C161.255 30.0973 161.446 29.2293 161.446 28.1C161.446 26.9707 161.255 26.1027 160.872 25.496C160.49 24.8893 159.934 24.586 159.206 24.586C158.488 24.586 157.932 24.8893 157.54 25.496C157.158 26.1027 156.966 26.9707 156.966 28.1C156.966 29.2293 157.158 30.0973 157.54 30.704C157.932 31.3107 158.488 31.614 159.206 31.614ZM171.133 31.796C170.461 32.72 169.518 33.182 168.305 33.182C167.091 33.182 166.144 32.72 165.463 31.796C164.791 30.872 164.455 29.64 164.455 28.1C164.455 26.56 164.791 25.328 165.463 24.404C166.144 23.48 167.091 23.018 168.305 23.018C169.518 23.018 170.461 23.48 171.133 24.404C171.814 25.328 172.155 26.56 172.155 28.1C172.155 29.64 171.814 30.872 171.133 31.796ZM168.305 31.614C169.033 31.614 169.588 31.3107 169.971 30.704C170.353 30.0973 170.545 29.2293 170.545 28.1C170.545 26.9707 170.353 26.1027 169.971 25.496C169.588 24.8893 169.033 24.586 168.305 24.586C167.586 24.586 167.031 24.8893 166.639 25.496C166.256 26.1027 166.065 26.9707 166.065 28.1C166.065 29.2293 166.256 30.0973 166.639 30.704C167.031 31.3107 167.586 31.614 168.305 31.614ZM180.231 31.796C179.559 32.72 178.616 33.182 177.403 33.182C176.19 33.182 175.242 32.72 174.561 31.796C173.889 30.872 173.553 29.64 173.553 28.1C173.553 26.56 173.889 25.328 174.561 24.404C175.242 23.48 176.19 23.018 177.403 23.018C178.616 23.018 179.559 23.48 180.231 24.404C180.912 25.328 181.253 26.56 181.253 28.1C181.253 29.64 180.912 30.872 180.231 31.796ZM177.403 31.614C178.131 31.614 178.686 31.3107 179.069 30.704C179.452 30.0973 179.643 29.2293 179.643 28.1C179.643 26.9707 179.452 26.1027 179.069 25.496C178.686 24.8893 178.131 24.586 177.403 24.586C176.684 24.586 176.129 24.8893 175.737 25.496C175.354 26.1027 175.163 26.9707 175.163 28.1C175.163 29.2293 175.354 30.0973 175.737 30.704C176.129 31.3107 176.684 31.614 177.403 31.614ZM189.357 30.312C189.357 31.1053 189.101 31.754 188.587 32.258C188.083 32.7527 187.421 33.0513 186.599 33.154L186.599 34.4L185.689 34.4L185.689 33.168C184.915 33.1213 184.252 32.9113 183.701 32.538C183.151 32.1647 182.754 31.656 182.511 31.012L183.897 30.214C184.224 31.0353 184.821 31.4927 185.689 31.586L185.689 28.674C185.269 28.5153 184.929 28.3753 184.667 28.254C184.406 28.1233 184.126 27.946 183.827 27.722C183.538 27.498 183.319 27.2273 183.169 26.91C183.029 26.5833 182.959 26.2053 182.959 25.776C182.959 24.992 183.221 24.3573 183.743 23.872C184.266 23.3867 184.915 23.1067 185.689 23.032L185.689 21.8L186.599 21.8L186.599 23.046C187.85 23.214 188.718 23.8533 189.203 24.964L187.845 25.748C187.603 25.1413 187.187 24.7727 186.599 24.642L186.599 27.414C186.898 27.526 187.122 27.6147 187.271 27.68C187.43 27.7453 187.635 27.8433 187.887 27.974C188.149 28.1047 188.349 28.2353 188.489 28.366C188.629 28.4967 188.774 28.6553 188.923 28.842C189.082 29.0287 189.194 29.248 189.259 29.5C189.325 29.7427 189.357 30.0133 189.357 30.312ZM184.569 25.776C184.569 26.0653 184.653 26.3033 184.821 26.49C184.999 26.6767 185.288 26.8633 185.689 27.05L185.689 24.614C185.344 24.67 185.069 24.8007 184.863 25.006C184.667 25.2113 184.569 25.468 184.569 25.776ZM186.599 31.572C186.973 31.4973 187.257 31.348 187.453 31.124C187.649 30.9 187.747 30.634 187.747 30.326C187.747 30.018 187.654 29.7707 187.467 29.584C187.281 29.388 186.991 29.2013 186.599 29.024L186.599 31.572ZM200.695 26L200.695 33L199.771 33L199.771 26.896L195.739 26.896L195.739 33L194.815 33L194.815 26L200.695 26ZM208.795 32.118C208.086 32.818 207.218 33.168 206.191 33.168C205.164 33.168 204.292 32.818 203.573 32.118C202.864 31.4087 202.509 30.536 202.509 29.5C202.509 28.464 202.864 27.596 203.573 26.896C204.292 26.1867 205.164 25.832 206.191 25.832C207.218 25.832 208.086 26.1867 208.795 26.896C209.514 27.596 209.873 28.464 209.873 29.5C209.873 30.536 209.514 31.4087 208.795 32.118ZM204.231 31.474C204.763 32.006 205.416 32.272 206.191 32.272C206.966 32.272 207.619 32.006 208.151 31.474C208.683 30.9327 208.949 30.2747 208.949 29.5C208.949 28.7253 208.683 28.072 208.151 27.54C207.619 26.9987 206.966 26.728 206.191 26.728C205.416 26.728 204.763 26.9987 204.231 27.54C203.699 28.072 203.433 28.7253 203.433 29.5C203.433 30.2747 203.699 30.9327 204.231 31.474ZM218.587 33.168C217.579 33.168 216.739 32.8367 216.067 32.174C215.395 31.502 215.059 30.634 215.059 29.57C215.059 28.3753 215.236 27.4607 215.591 26.826C215.946 26.182 216.664 25.5987 217.747 25.076C217.952 24.9733 218.223 24.852 218.559 24.712C218.904 24.572 219.161 24.46 219.329 24.376C219.506 24.292 219.698 24.1847 219.903 24.054C220.108 23.914 220.262 23.76 220.365 23.592C220.468 23.424 220.533 23.2233 220.561 22.99L221.289 23.41C221.252 23.634 221.177 23.844 221.065 24.04C220.953 24.236 220.836 24.3947 220.715 24.516C220.603 24.6373 220.421 24.7727 220.169 24.922C219.926 25.062 219.735 25.1647 219.595 25.23C219.464 25.286 219.231 25.384 218.895 25.524C218.568 25.664 218.349 25.7573 218.237 25.804C217.584 26.084 217.103 26.378 216.795 26.686C216.487 26.9847 216.268 27.3767 216.137 27.862C216.454 27.442 216.856 27.134 217.341 26.938C217.836 26.7327 218.316 26.63 218.783 26.63C219.716 26.63 220.486 26.938 221.093 27.554C221.709 28.1607 222.017 28.94 222.017 29.892C222.017 30.8347 221.69 31.6187 221.037 32.244C220.393 32.86 219.576 33.168 218.587 33.168ZM218.587 32.244C219.315 32.244 219.912 32.0247 220.379 31.586C220.855 31.138 221.093 30.5733 221.093 29.892C221.093 29.2013 220.869 28.6367 220.421 28.198C219.982 27.75 219.394 27.526 218.657 27.526C217.994 27.526 217.392 27.736 216.851 28.156C216.31 28.5667 216.039 29.1173 216.039 29.808C216.039 30.5173 216.282 31.1007 216.767 31.558C217.262 32.0153 217.868 32.244 218.587 32.244ZM226.937 25.832C227.973 25.832 228.808 26.2007 229.443 26.938C230.087 27.666 230.409 28.5293 230.409 29.528C230.409 29.6307 230.399 29.7753 230.381 29.962L224.235 29.962C224.328 30.6713 224.627 31.236 225.131 31.656C225.644 32.0667 226.274 32.272 227.021 32.272C227.553 32.272 228.01 32.1647 228.393 31.95C228.785 31.726 229.079 31.4367 229.275 31.082L230.087 31.558C229.779 32.0527 229.359 32.4447 228.827 32.734C228.295 33.0233 227.688 33.168 227.007 33.168C225.905 33.168 225.009 32.8227 224.319 32.132C223.628 31.4413 223.283 30.564 223.283 29.5C223.283 28.4547 223.623 27.582 224.305 26.882C224.986 26.182 225.863 25.832 226.937 25.832ZM226.937 26.728C226.209 26.728 225.597 26.9473 225.103 27.386C224.617 27.8153 224.328 28.3753 224.235 29.066L229.457 29.066C229.363 28.3287 229.079 27.7547 228.603 27.344C228.127 26.9333 227.571 26.728 226.937 26.728ZM235.634 29.402C236.446 29.71 236.852 30.27 236.852 31.082C236.852 31.6607 236.623 32.1553 236.166 32.566C235.718 32.9673 235.074 33.168 234.234 33.168C232.824 33.168 231.9 32.608 231.462 31.488L232.246 31.026C232.535 31.8567 233.198 32.272 234.234 32.272C234.775 32.272 235.19 32.1553 235.48 31.922C235.778 31.6887 235.928 31.39 235.928 31.026C235.928 30.6993 235.806 30.4333 235.564 30.228C235.321 30.0227 234.994 29.92 234.584 29.92L233.562 29.92L233.562 29.024L234.304 29.024C234.705 29.024 235.018 28.926 235.242 28.73C235.475 28.5247 235.592 28.2447 235.592 27.89C235.592 27.554 235.456 27.2787 235.186 27.064C234.915 26.84 234.551 26.728 234.094 26.728C233.216 26.728 232.633 27.078 232.344 27.778L231.574 27.33C232.04 26.3313 232.88 25.832 234.094 25.832C234.831 25.832 235.419 26.028 235.858 26.42C236.296 26.8027 236.516 27.274 236.516 27.834C236.516 28.5527 236.222 29.0753 235.634 29.402ZM242.288 25.832C243.287 25.832 244.136 26.1867 244.836 26.896C245.545 27.6053 245.9 28.4733 245.9 29.5C245.9 30.5267 245.545 31.3947 244.836 32.104C244.136 32.8133 243.287 33.168 242.288 33.168C241.047 33.168 240.104 32.6547 239.46 31.628L239.46 35.8L238.536 35.8L238.536 26L239.46 26L239.46 27.372C240.104 26.3453 241.047 25.832 242.288 25.832ZM240.258 31.474C240.79 32.006 241.443 32.272 242.218 32.272C242.993 32.272 243.646 32.006 244.178 31.474C244.71 30.9327 244.976 30.2747 244.976 29.5C244.976 28.7253 244.71 28.072 244.178 27.54C243.646 26.9987 242.993 26.728 242.218 26.728C241.443 26.728 240.79 26.9987 240.258 27.54C239.726 28.072 239.46 28.7253 239.46 29.5C239.46 30.2747 239.726 30.9327 240.258 31.474ZM253.582 32.118C252.873 32.818 252.005 33.168 250.978 33.168C249.952 33.168 249.079 32.818 248.36 32.118C247.651 31.4087 247.296 30.536 247.296 29.5C247.296 28.464 247.651 27.596 248.36 26.896C249.079 26.1867 249.952 25.832 250.978 25.832C252.005 25.832 252.873 26.1867 253.582 26.896C254.301 27.596 254.66 28.464 254.66 29.5C254.66 30.536 254.301 31.4087 253.582 32.118ZM249.018 31.474C249.55 32.006 250.204 32.272 250.978 32.272C251.753 32.272 252.406 32.006 252.938 31.474C253.47 30.9327 253.736 30.2747 253.736 29.5C253.736 28.7253 253.47 28.072 252.938 27.54C252.406 26.9987 251.753 26.728 250.978 26.728C250.204 26.728 249.55 26.9987 249.018 27.54C248.486 28.072 248.22 28.7253 248.22 29.5C248.22 30.2747 248.486 30.9327 249.018 31.474ZM259.595 33.168C258.587 33.168 257.747 32.8367 257.075 32.174C256.403 31.502 256.067 30.634 256.067 29.57C256.067 28.3753 256.244 27.4607 256.599 26.826C256.953 26.182 257.672 25.5987 258.755 25.076C258.96 24.9733 259.231 24.852 259.567 24.712C259.912 24.572 260.169 24.46 260.337 24.376C260.514 24.292 260.705 24.1847 260.911 24.054C261.116 23.914 261.27 23.76 261.373 23.592C261.475 23.424 261.541 23.2233 261.569 22.99L262.297 23.41C262.259 23.634 262.185 23.844 262.073 24.04C261.961 24.236 261.844 24.3947 261.723 24.516C261.611 24.6373 261.429 24.7727 261.177 24.922C260.934 25.062 260.743 25.1647 260.603 25.23C260.472 25.286 260.239 25.384 259.903 25.524C259.576 25.664 259.357 25.7573 259.245 25.804C258.591 26.084 258.111 26.378 257.803 26.686C257.495 26.9847 257.275 27.3767 257.145 27.862C257.462 27.442 257.863 27.134 258.349 26.938C258.843 26.7327 259.324 26.63 259.791 26.63C260.724 26.63 261.494 26.938 262.101 27.554C262.717 28.1607 263.025 28.94 263.025 29.892C263.025 30.8347 262.698 31.6187 262.045 32.244C261.401 32.86 260.584 33.168 259.595 33.168ZM259.595 32.244C260.323 32.244 260.92 32.0247 261.387 31.586C261.863 31.138 262.101 30.5733 262.101 29.892C262.101 29.2013 261.877 28.6367 261.429 28.198C260.99 27.75 260.402 27.526 259.665 27.526C259.002 27.526 258.4 27.736 257.859 28.156C257.317 28.5667 257.047 29.1173 257.047 29.808C257.047 30.5173 257.289 31.1007 257.775 31.558C258.269 32.0153 258.876 32.244 259.595 32.244ZM265.648 24.32C265.517 24.4507 265.359 24.516 265.172 24.516C264.985 24.516 264.827 24.4507 264.696 24.32C264.565 24.1893 264.5 24.0307 264.5 23.844C264.5 23.6573 264.565 23.4987 264.696 23.368C264.827 23.2373 264.985 23.172 265.172 23.172C265.359 23.172 265.517 23.2373 265.648 23.368C265.779 23.4987 265.844 23.6573 265.844 23.844C265.844 24.0307 265.779 24.1893 265.648 24.32ZM264.71 33L264.71 26L265.634 26L265.634 33L264.71 33ZM272.915 26L272.915 26.896L270.437 26.896L270.437 33L269.513 33L269.513 26.896L267.035 26.896L267.035 26L272.915 26ZM279.361 26L279.361 26.896L276.883 26.896L276.883 33L275.959 33L275.959 26.896L273.481 26.896L273.481 26L279.361 26ZM286.745 25.832C287.771 25.832 288.639 26.1867 289.349 26.896C290.067 27.596 290.427 28.464 290.427 29.5C290.427 30.536 290.067 31.4087 289.349 32.118C288.639 32.818 287.771 33.168 286.745 33.168C285.802 33.168 284.99 32.8647 284.309 32.258C283.637 31.642 283.249 30.872 283.147 29.948L281.691 29.948L281.691 33L280.767 33L280.767 26L281.691 26L281.691 29.052L283.147 29.052C283.249 28.128 283.637 27.3627 284.309 26.756C284.99 26.14 285.802 25.832 286.745 25.832ZM284.785 31.474C285.317 32.006 285.97 32.272 286.745 32.272C287.519 32.272 288.173 32.006 288.705 31.474C289.237 30.9327 289.503 30.2747 289.503 29.5C289.503 28.7253 289.237 28.072 288.705 27.54C288.173 26.9987 287.519 26.728 286.745 26.728C285.97 26.728 285.317 26.9987 284.785 27.54C284.253 28.072 283.987 28.7253 283.987 29.5C283.987 30.2747 284.253 30.9327 284.785 31.474Z" fill="white"/>
<rect x="16" y="55" width="79" height="1" rx="0.5" fill="#FED500"/>
<defs>
<filter id="filter0_b_23_306" x="-4" y="-4" width="315" height="64" filterUnits="userSpaceOnUse" color-interpolation-filters="sRGB">
<feFlood flood-opacity="0" result="BackgroundImageFix"/>
<feGaussianBlur in="BackgroundImageFix" stdDeviation="2"/>
<feComposite in2="SourceAlpha" operator="in" result="effect1_backgroundBlur_23_306"/>
<feBlend mode="normal" in="SourceGraphic" in2="effect1_backgroundBlur_23_306" result="shape"/>
</filter>
<filter id="filter1_d_23_306" x="4" y="8" width="48" height="48" filterUnits="userSpaceOnUse" color-interpolation-filters="sRGB">
<feFlood flood-opacity="0" result="BackgroundImageFix"/>
<feColorMatrix in="SourceAlpha" type="matrix" values="0 0 0 0 0 0 0 0 0 0 0 0 0 0 0 0 0 0 127 0" result="hardAlpha"/>
<feOffset dy="4"/>
<feGaussianBlur stdDeviation="6"/>
<feComposite in2="hardAlpha" operator="out"/>
<feColorMatrix type="matrix" values="0 0 0 0 0.192157 0 0 0 0 0.988235 0 0 0 0 0.270588 0 0 0 0.25 0"/>
<feBlend mode="normal" in2="BackgroundImageFix" result="effect1_dropShadow_23_306"/>
<feBlend mode="normal" in="SourceGraphic" in2="effect1_dropShadow_23_306" result="shape"/>
</filter>
</defs>
</svg>
