<svg width="117" height="45" viewBox="0 0 117 45" fill="none" xmlns="http://www.w3.org/2000/svg">
<rect opacity="0.4" width="117" height="45" rx="8" fill="#0D0D0D"/>
<path fill-rule="evenodd" clip-rule="evenodd" d="M24 12C21.2389 12 18.7375 13.1204 16.9289 14.9289C15.1204 16.7375 14 19.2389 14 22C14 24.7611 15.1204 27.2625 16.9289 29.0711C18.7375 30.8796 21.2389 32 24 32C26.7611 32 29.2625 30.8796 31.0711 29.0711C32.8796 27.2625 34 24.7611 34 22C34 19.2389 32.8796 16.7375 31.0711 14.9289C29.2625 13.1204 26.7611 12 24 12ZM24 17C24.5523 17 25 17.4477 25 18V21.5858L26.7071 23.2929C27.0976 23.6834 27.0976 24.3166 26.7071 24.7071C26.3166 25.0976 25.6834 25.0976 25.2929 24.7071L23.2929 22.7071C23.1054 22.5196 23 22.2652 23 22V18C23 17.4477 23.4477 17 24 17Z" fill="#FED500"/>
<path d="M47.152 9.8L48.752 9.8L48.752 21L46.912 21L46.912 11.768L44.656 12.408L44.208 10.84L47.152 9.8ZM50.5131 9.8L57.6331 9.8L57.6331 11.4L53.6971 21L51.7611 21L55.6331 11.56L50.5131 11.56L50.5131 9.8ZM60.3798 14.84C60.1451 15.0747 59.8624 15.192 59.5318 15.192C59.2011 15.192 58.9184 15.0747 58.6838 14.84C58.4491 14.6053 58.3318 14.3227 58.3318 13.992C58.3318 13.6507 58.4438 13.368 58.6678 13.144C58.9024 12.9093 59.1904 12.792 59.5318 12.792C59.8624 12.792 60.1451 12.9093 60.3798 13.144C60.6144 13.3787 60.7318 13.6613 60.7318 13.992C60.7318 14.3227 60.6144 14.6053 60.3798 14.84ZM60.3798 20.84C60.1451 21.0747 59.8624 21.192 59.5318 21.192C59.2011 21.192 58.9184 21.0747 58.6838 20.84C58.4491 20.6053 58.3318 20.3227 58.3318 19.992C58.3318 19.6613 58.4438 19.3787 58.6678 19.144C58.9024 18.9093 59.1904 18.792 59.5318 18.792C59.8624 18.792 60.1451 18.9093 60.3798 19.144C60.6144 19.3787 60.7318 19.6613 60.7318 19.992C60.7318 20.3227 60.6144 20.6053 60.3798 20.84ZM62.3779 21L62.3779 19.56L66.2819 15.576C67.2312 14.6267 67.7059 13.8053 67.7059 13.112C67.7059 12.568 67.5405 12.1467 67.2099 11.848C66.8899 11.5387 66.4792 11.384 65.9779 11.384C65.0392 11.384 64.3459 11.848 63.8979 12.776L62.3459 11.864C62.6979 11.1173 63.1939 10.552 63.8339 10.168C64.4739 9.784 65.1832 9.592 65.9619 9.592C66.9432 9.592 67.7859 9.90133 68.4899 10.52C69.1939 11.1387 69.5459 11.9813 69.5459 13.048C69.5459 14.1893 68.9112 15.4053 67.6419 16.696L65.1139 19.224L69.7539 19.224L69.7539 21L62.3779 21ZM75.8584 14.376C76.669 14.568 77.325 14.9467 77.8264 15.512C78.3384 16.0667 78.5944 16.7653 78.5944 17.608C78.5944 18.728 78.2157 19.608 77.4584 20.248C76.701 20.888 75.773 21.208 74.6744 21.208C73.821 21.208 73.053 21.0107 72.3704 20.616C71.6984 20.2213 71.213 19.6453 70.9144 18.888L72.4824 17.976C72.813 18.936 73.5437 19.416 74.6744 19.416C75.3144 19.416 75.821 19.256 76.1944 18.936C76.5677 18.6053 76.7544 18.1627 76.7544 17.608C76.7544 17.0533 76.5677 16.616 76.1944 16.296C75.821 15.976 75.3144 15.816 74.6744 15.816L74.2584 15.816L73.5224 14.712L75.9384 11.528L71.2504 11.528L71.2504 9.8L78.1304 9.8L78.1304 11.368L75.8584 14.376Z" fill="white"/>
<path opacity="0.5" d="M44.432 36L44.432 35.088L47.396 32.064C48.188 31.272 48.584 30.592 48.584 30.024C48.584 29.552 48.44 29.184 48.152 28.92C47.864 28.656 47.512 28.524 47.096 28.524C46.304 28.524 45.728 28.9 45.368 29.652L44.432 29.1C44.696 28.556 45.06 28.144 45.524 27.864C45.996 27.584 46.516 27.444 47.084 27.444C47.788 27.444 48.4 27.676 48.92 28.14C49.44 28.604 49.7 29.228 49.7 30.012C49.7 30.86 49.2 31.784 48.2 32.784L46.052 34.92L49.856 34.92L49.856 36L44.432 36ZM51.0001 36L51.0001 35.088L53.9641 32.064C54.7561 31.272 55.1521 30.592 55.1521 30.024C55.1521 29.552 55.0081 29.184 54.7201 28.92C54.4321 28.656 54.0801 28.524 53.6641 28.524C52.8721 28.524 52.2961 28.9 51.9361 29.652L51.0001 29.1C51.2641 28.556 51.6281 28.144 52.0921 27.864C52.5641 27.584 53.0841 27.444 53.6521 27.444C54.3561 27.444 54.9681 27.676 55.4881 28.14C56.0081 28.604 56.2681 29.228 56.2681 30.012C56.2681 30.86 55.7681 31.784 54.7681 32.784L52.6201 34.92L56.4241 34.92L56.4241 36L51.0001 36ZM58.5882 36.132C58.3722 36.132 58.1882 36.056 58.0362 35.904C57.8842 35.752 57.8082 35.568 57.8082 35.352C57.8082 35.136 57.8842 34.952 58.0362 34.8C58.1882 34.648 58.3722 34.572 58.5882 34.572C58.8122 34.572 58.9962 34.648 59.1402 34.8C59.2922 34.952 59.3682 35.136 59.3682 35.352C59.3682 35.568 59.2922 35.752 59.1402 35.904C58.9962 36.056 58.8122 36.132 58.5882 36.132ZM66.0989 34.968C65.5309 35.76 64.7349 36.156 63.7109 36.156C62.6869 36.156 61.8909 35.76 61.3229 34.968C60.7549 34.176 60.4709 33.12 60.4709 31.8C60.4709 30.48 60.7549 29.424 61.3229 28.632C61.8909 27.84 62.6869 27.444 63.7109 27.444C64.7349 27.444 65.5309 27.84 66.0989 28.632C66.6669 29.424 66.9509 30.48 66.9509 31.8C66.9509 33.12 66.6669 34.176 66.0989 34.968ZM62.1389 34.212C62.5069 34.78 63.0309 35.064 63.7109 35.064C64.3909 35.064 64.9149 34.78 65.2829 34.212C65.6589 33.644 65.8469 32.84 65.8469 31.8C65.8469 30.76 65.6589 29.956 65.2829 29.388C64.9149 28.812 64.3909 28.524 63.7109 28.524C63.0309 28.524 62.5069 28.808 62.1389 29.376C61.7709 29.944 61.5869 30.752 61.5869 31.8C61.5869 32.84 61.7709 33.644 62.1389 34.212ZM70.9344 30.876C71.7264 30.876 72.3944 31.112 72.9384 31.584C73.4904 32.048 73.7664 32.692 73.7664 33.516C73.7664 34.332 73.4864 34.976 72.9264 35.448C72.3664 35.92 71.6864 36.156 70.8864 36.156C70.2464 36.156 69.6744 36.004 69.1704 35.7C68.6664 35.388 68.3144 34.94 68.1144 34.356L69.0624 33.816C69.1744 34.224 69.3904 34.536 69.7104 34.752C70.0304 34.96 70.4224 35.064 70.8864 35.064C71.4144 35.064 71.8424 34.928 72.1704 34.656C72.4984 34.384 72.6624 34.004 72.6624 33.516C72.6624 33.028 72.4984 32.648 72.1704 32.376C71.8424 32.096 71.4224 31.956 70.9104 31.956L68.5344 31.956L68.8464 27.6L73.4424 27.6L73.4424 28.644L69.8544 28.644L69.7104 30.876L70.9344 30.876ZM75.6676 36.132C75.4516 36.132 75.2676 36.056 75.1156 35.904C74.9636 35.752 74.8876 35.568 74.8876 35.352C74.8876 35.136 74.9636 34.952 75.1156 34.8C75.2676 34.648 75.4516 34.572 75.6676 34.572C75.8916 34.572 76.0756 34.648 76.2196 34.8C76.3716 34.952 76.4476 35.136 76.4476 35.352C76.4476 35.568 76.3716 35.752 76.2196 35.904C76.0756 36.056 75.8916 36.132 75.6676 36.132ZM77.8056 36L77.8056 35.088L80.7696 32.064C81.5616 31.272 81.9576 30.592 81.9576 30.024C81.9576 29.552 81.8136 29.184 81.5256 28.92C81.2376 28.656 80.8856 28.524 80.4696 28.524C79.6776 28.524 79.1016 28.9 78.7416 29.652L77.8056 29.1C78.0696 28.556 78.4336 28.144 78.8976 27.864C79.3696 27.584 79.8896 27.444 80.4576 27.444C81.1616 27.444 81.7736 27.676 82.2936 28.14C82.8136 28.604 83.0736 29.228 83.0736 30.012C83.0736 30.86 82.5736 31.784 81.5736 32.784L79.4256 34.92L83.2296 34.92L83.2296 36L77.8056 36ZM89.9925 34.968C89.4245 35.76 88.6285 36.156 87.6045 36.156C86.5805 36.156 85.7845 35.76 85.2165 34.968C84.6485 34.176 84.3645 33.12 84.3645 31.8C84.3645 30.48 84.6485 29.424 85.2165 28.632C85.7845 27.84 86.5805 27.444 87.6045 27.444C88.6285 27.444 89.4245 27.84 89.9925 28.632C90.5605 29.424 90.8445 30.48 90.8445 31.8C90.8445 33.12 90.5605 34.176 89.9925 34.968ZM86.0325 34.212C86.4005 34.78 86.9245 35.064 87.6045 35.064C88.2845 35.064 88.8085 34.78 89.1765 34.212C89.5525 33.644 89.7405 32.84 89.7405 31.8C89.7405 30.76 89.5525 29.956 89.1765 29.388C88.8085 28.812 88.2845 28.524 87.6045 28.524C86.9245 28.524 86.4005 28.808 86.0325 29.376C85.6645 29.944 85.4805 30.752 85.4805 31.8C85.4805 32.84 85.6645 33.644 86.0325 34.212ZM91.9028 36L91.9028 35.088L94.8668 32.064C95.6588 31.272 96.0548 30.592 96.0548 30.024C96.0548 29.552 95.9108 29.184 95.6228 28.92C95.3348 28.656 94.9828 28.524 94.5668 28.524C93.7748 28.524 93.1988 28.9 92.8388 29.652L91.9028 29.1C92.1668 28.556 92.5308 28.144 92.9948 27.864C93.4668 27.584 93.9868 27.444 94.5548 27.444C95.2588 27.444 95.8708 27.676 96.3908 28.14C96.9108 28.604 97.1708 29.228 97.1708 30.012C97.1708 30.86 96.6708 31.784 95.6708 32.784L93.5228 34.92L97.3268 34.92L97.3268 36L91.9028 36ZM101.714 31.044C102.354 31.164 102.878 31.44 103.286 31.872C103.694 32.304 103.898 32.852 103.898 33.516C103.898 34.332 103.618 34.976 103.058 35.448C102.498 35.92 101.818 36.156 101.018 36.156C100.378 36.156 99.8097 36.012 99.3137 35.724C98.8177 35.428 98.4657 35.004 98.2577 34.452L99.1937 33.9C99.4417 34.676 100.05 35.064 101.018 35.064C101.538 35.064 101.962 34.928 102.29 34.656C102.618 34.384 102.782 34.004 102.782 33.516C102.782 33.028 102.618 32.648 102.29 32.376C101.962 32.096 101.538 31.956 101.018 31.956L100.73 31.956L100.286 31.272L102.23 28.644L98.4977 28.644L98.4977 27.6L103.538 27.6L103.538 28.584L101.714 31.044Z" fill="white"/>
</svg>
