<svg width="293" height="45" viewBox="0 0 293 45" fill="none" xmlns="http://www.w3.org/2000/svg">
<path d="M228.07 30.6422H224.547V21.8097C225.929 21.2279 227.103 20.937 228.07 20.937V30.6422ZM217.581 30.7175H214.043V20.5458C214.043 19.5828 214.396 18.7702 215.103 18.1082C215.809 17.4461 216.635 17.1151 217.581 17.1151V22.4567C218.485 21.4135 219.503 20.4956 220.635 19.7031C221.778 18.9006 222.984 18.2687 224.251 17.8072C225.519 17.3458 226.792 17.1151 228.07 17.1151V20.5458C226.844 20.5458 225.607 20.8567 224.36 21.4787C223.124 22.0906 221.997 22.8981 220.978 23.9012C219.96 24.9044 219.139 26.0028 218.516 27.1965C217.893 28.3902 217.581 29.5639 217.581 30.7175Z" fill="white"/>
<path d="M233.462 30.7175H229.94V20.5458C229.94 19.6229 230.283 18.8204 230.968 18.1383C231.654 17.4561 232.485 17.1151 233.462 17.1151V22.4567C234.376 21.4135 235.4 20.4956 236.532 19.7031C237.675 18.9006 238.875 18.2687 240.133 17.8072C241.4 17.3458 242.678 17.1151 243.966 17.1151V20.5458C242.761 20.5458 241.54 20.8567 240.304 21.4787C239.068 22.0906 237.935 22.8981 236.906 23.9012C235.878 24.9044 235.047 26.0028 234.413 27.1965C233.779 28.3902 233.462 29.5639 233.462 30.7175Z" fill="white"/>
<path d="M259.785 30.7175H245.837V20.5458C245.837 19.6229 246.18 18.8204 246.865 18.1383C247.551 17.4561 248.382 17.1151 249.359 17.1151H259.863V20.5458L254.362 26.8203H249.858L255.359 20.5458H249.281V27.3018H256.248C257.193 27.3018 258.019 27.6329 258.726 28.2949C259.432 28.957 259.785 29.7645 259.785 30.7175Z" fill="white"/>
<path d="M274.747 30.7175H264.243C263.266 30.7175 262.435 30.3764 261.749 29.6943C261.063 29.0122 260.721 28.2147 260.721 27.3018V25.6316C260.721 24.6786 261.058 23.8711 261.734 23.2091C262.409 22.547 263.219 22.216 264.165 22.216H271.131V20.5458H266.456C265.479 20.5458 264.648 20.2047 263.962 19.5226C263.276 18.8304 262.934 18.0279 262.934 17.1151H271.131C272.118 17.1151 272.955 17.4561 273.641 18.1383C274.326 18.8204 274.669 19.6229 274.669 20.5458V25.6316H265.069C264.778 25.6316 264.56 25.7219 264.414 25.9025C264.279 26.073 264.212 26.2586 264.212 26.4592C264.212 26.6699 264.279 26.8655 264.414 27.046C264.56 27.2166 264.778 27.3018 265.069 27.3018H274.747V30.7175Z" fill="white"/>
<path d="M290.66 30.7175H280.155C279.21 30.7175 278.384 30.3864 277.677 29.7244C276.981 29.0623 276.633 28.2548 276.633 27.3018V16.0016C276.633 15.0887 276.971 14.2913 277.646 13.6091C278.332 12.927 279.168 12.5859 280.155 12.5859V26.1884C280.155 26.5094 280.259 26.7752 280.467 26.9858C280.685 27.1965 280.934 27.3018 281.215 27.3018H286.062L285.158 23.7959H288.774L290.66 30.7175Z" fill="white"/>
<path d="M259.568 34.6637H261.201C261.769 34.6637 262.183 34.7959 262.443 35.0605C262.704 35.3184 262.834 35.7185 262.834 36.2609V36.6874C262.834 37.4083 262.594 37.8647 262.113 38.0565V38.0763C262.38 38.1557 262.567 38.3177 262.674 38.5624C262.787 38.8071 262.844 39.1345 262.844 39.5445V40.7647C262.844 40.9631 262.851 41.1252 262.864 41.2508C262.877 41.3699 262.911 41.4889 262.964 41.608H261.842C261.802 41.4955 261.775 41.3897 261.762 41.2905C261.749 41.1913 261.742 41.0128 261.742 40.7548V39.485C261.742 39.1675 261.689 38.946 261.582 38.8203C261.482 38.6947 261.305 38.6318 261.051 38.6318H260.67V41.608H259.568V34.6637ZM261.071 37.6398C261.291 37.6398 261.455 37.5836 261.562 37.4711C261.675 37.3587 261.732 37.1702 261.732 36.9057V36.37C261.732 36.1187 261.685 35.9368 261.592 35.8244C261.505 35.7119 261.365 35.6557 261.171 35.6557H260.67V37.6398H261.071Z" fill="#FED500"/>
<path d="M265.201 41.7072C264.66 41.7072 264.246 41.5551 263.959 41.2508C263.672 40.9466 263.528 40.5167 263.528 39.9612V36.3105C263.528 35.7549 263.672 35.325 263.959 35.0208C264.246 34.7166 264.66 34.5645 265.201 34.5645C265.742 34.5645 266.156 34.7166 266.443 35.0208C266.73 35.325 266.874 35.7549 266.874 36.3105V39.9612C266.874 40.5167 266.73 40.9466 266.443 41.2508C266.156 41.5551 265.742 41.7072 265.201 41.7072ZM265.201 40.7151C265.582 40.7151 265.772 40.487 265.772 40.0306V36.241C265.772 35.7847 265.582 35.5565 265.201 35.5565C264.821 35.5565 264.63 35.7847 264.63 36.241V40.0306C264.63 40.487 264.821 40.7151 265.201 40.7151Z" fill="#FED500"/>
<path d="M267.619 34.6637H268.721V40.6159H270.534V41.608H267.619V34.6637Z" fill="#FED500"/>
<path d="M271.063 34.6637H274.068V35.6557H272.165V37.491H273.677V38.483H272.165V40.6159H274.068V41.608H271.063V34.6637Z" fill="#FED500"/>
<path d="M276.306 34.6637H277.929C278.476 34.6637 278.887 34.8092 279.161 35.1002C279.435 35.3912 279.572 35.8177 279.572 36.3799V37.0644C279.572 37.6266 279.435 38.0531 279.161 38.3441C278.887 38.6351 278.476 38.7806 277.929 38.7806H277.408V41.608H276.306V34.6637ZM277.929 37.7886C278.109 37.7886 278.243 37.739 278.329 37.6398C278.423 37.5406 278.47 37.3719 278.47 37.1339V36.3105C278.47 36.0724 278.423 35.9037 278.329 35.8045C278.243 35.7053 278.109 35.6557 277.929 35.6557H277.408V37.7886H277.929Z" fill="#FED500"/>
<path d="M280.17 34.6637H281.272V40.6159H283.085V41.608H280.17V34.6637Z" fill="#FED500"/>
<path d="M284.504 34.6637H285.997L287.138 41.608H286.037L285.836 40.229V40.2489H284.584L284.384 41.608H283.362L284.504 34.6637ZM285.706 39.3064L285.215 35.874H285.195L284.714 39.3064H285.706Z" fill="#FED500"/>
<path d="M288.225 38.6517L286.893 34.6637H288.065L288.816 37.2132H288.836L289.587 34.6637H290.659L289.327 38.6517V41.608H288.225V38.6517Z" fill="#FED500"/>
<path fill-rule="evenodd" clip-rule="evenodd" d="M185.341 3.30859H186.744C189.371 3.30859 191.5 5.41599 191.5 8.01559V20.1014C191.5 22.701 193.63 24.8084 196.256 24.8084H204.59V16.9903H206.007C208.634 16.9903 210.763 19.0977 210.763 21.6973V30.9622H192.475C188.535 30.9622 185.341 27.8011 185.341 23.9017V3.30859Z" fill="white"/>
<path d="M204.58 3.30859L-nan -nanL204.58 3.30859C207.995 3.30859 210.763 6.0482 210.763 9.42768L210.763 11.9695L-nan -nanL210.763 11.9695C207.348 11.9695 204.58 9.22985 204.58 5.85037L204.58 3.30859Z" fill="#FED500"/>
<path fill-rule="evenodd" clip-rule="evenodd" d="M115.158 19.2329C115.158 21.5825 113.285 23.4666 110.949 23.4666C108.613 23.4666 106.74 21.5825 106.74 19.2329C106.74 16.8823 108.613 15 110.949 15C113.285 15 115.158 16.8823 115.158 19.2329ZM110.949 31C107.518 31 104.588 30.456 104.588 28.2802C104.588 26.1034 107.499 25.5396 110.949 25.5396C114.38 25.5396 117.31 26.0836 117.31 28.2604C117.31 30.4362 114.399 31 110.949 31ZM116.957 19.3092C116.957 20.507 116.6 21.6229 115.973 22.5505C115.909 22.646 115.966 22.7748 116.08 22.7946C116.236 22.8216 116.398 22.8369 116.563 22.8414C118.206 22.8846 119.681 21.821 120.088 20.2197C120.692 17.8412 118.92 15.7059 116.663 15.7059C116.418 15.7059 116.183 15.732 115.955 15.7788C115.924 15.786 115.891 15.8005 115.873 15.8284C115.851 15.8626 115.867 15.9085 115.889 15.9383C116.567 16.8938 116.957 18.0592 116.957 19.3092ZM119.678 24.5126C120.782 24.7296 121.508 25.1727 121.809 25.8166C122.064 26.3453 122.064 26.9586 121.809 27.4864C121.349 28.4851 119.865 28.8058 119.289 28.8886C119.17 28.9066 119.074 28.8031 119.086 28.6833C119.381 25.9157 117.038 24.6035 116.431 24.3018C116.406 24.2883 116.4 24.2676 116.403 24.255C116.405 24.246 116.415 24.2316 116.435 24.2289C117.747 24.2046 119.157 24.3847 119.678 24.5126ZM105.437 22.8413C105.602 22.8368 105.763 22.8224 105.921 22.7945C106.034 22.7747 106.092 22.6459 106.027 22.5504C105.4 21.6228 105.043 20.5069 105.043 19.3091C105.043 18.0591 105.434 16.8937 106.111 15.9382C106.133 15.9084 106.148 15.8625 106.127 15.8283C106.11 15.8013 106.076 15.786 106.045 15.7788C105.816 15.7319 105.581 15.7058 105.336 15.7058C103.08 15.7058 101.308 17.8411 101.912 20.2196C102.319 21.8209 103.794 22.8845 105.437 22.8413ZM105.597 24.2545C105.6 24.268 105.594 24.2878 105.569 24.3022C104.962 24.6039 102.619 25.9161 102.913 28.6827C102.926 28.8034 102.831 28.9061 102.712 28.889C102.135 28.8061 100.652 28.4855 100.191 27.4867C99.9362 26.9581 99.9362 26.3457 100.191 25.817C100.492 25.1731 101.218 24.73 102.322 24.512C102.844 24.385 104.253 24.2049 105.566 24.2292C105.585 24.2319 105.595 24.2464 105.597 24.2545Z" fill="#FED500"/>
<path d="M137.075 14.904C138.036 15.436 138.517 16.2293 138.517 17.284C138.517 18.18 138.204 18.8893 137.579 19.412C136.953 19.9253 136.123 20.182 135.087 20.182C134.051 20.182 133.215 19.9253 132.581 19.412C131.955 18.8893 131.643 18.18 131.643 17.284C131.643 16.78 131.769 16.3227 132.021 15.912C132.273 15.492 132.627 15.156 133.085 14.904C132.347 14.4187 131.979 13.728 131.979 12.832C131.979 11.936 132.277 11.2453 132.875 10.76C133.472 10.2653 134.209 10.018 135.087 10.018C135.955 10.018 136.687 10.2653 137.285 10.76C137.891 11.2453 138.195 11.936 138.195 12.832C138.195 13.728 137.821 14.4187 137.075 14.904ZM135.087 11.544C134.648 11.544 134.289 11.6607 134.009 11.894C133.729 12.1273 133.589 12.4633 133.589 12.902C133.589 13.322 133.729 13.6533 134.009 13.896C134.298 14.1387 134.657 14.26 135.087 14.26C135.507 14.26 135.861 14.1387 136.151 13.896C136.44 13.6533 136.585 13.322 136.585 12.902C136.585 12.4633 136.44 12.1273 136.151 11.894C135.871 11.6607 135.516 11.544 135.087 11.544ZM135.087 18.656C135.628 18.656 136.067 18.5253 136.403 18.264C136.739 17.9933 136.907 17.6153 136.907 17.13C136.907 16.6447 136.739 16.2713 136.403 16.01C136.067 15.7393 135.628 15.604 135.087 15.604C134.536 15.604 134.093 15.7393 133.757 16.01C133.421 16.2713 133.253 16.6447 133.253 17.13C133.253 17.6153 133.421 17.9933 133.757 18.264C134.093 18.5253 134.536 18.656 135.087 18.656ZM143.062 13.896C143.995 13.896 144.784 14.176 145.428 14.736C146.072 15.2867 146.394 16.052 146.394 17.032C146.394 18.012 146.063 18.782 145.4 19.342C144.737 19.902 143.925 20.182 142.964 20.182C142.189 20.182 141.503 20.0047 140.906 19.65C140.309 19.286 139.884 18.7633 139.632 18.082L141.018 17.284C141.279 18.1707 141.928 18.614 142.964 18.614C143.515 18.614 143.953 18.474 144.28 18.194C144.616 17.9047 144.784 17.5173 144.784 17.032C144.784 16.5467 144.621 16.164 144.294 15.884C143.967 15.604 143.533 15.464 142.992 15.464L140.136 15.464L140.514 10.2L145.974 10.2L145.974 11.712L141.998 11.712L141.83 13.896L143.062 13.896ZM147.194 10.2L153.424 10.2L153.424 11.6L149.98 20L148.286 20L151.674 11.74L147.194 11.74L147.194 10.2Z" fill="white"/>
<path opacity="0.4" d="M133.434 26.6L134.634 26.6L134.634 35L133.254 35L133.254 28.076L131.562 28.556L131.226 27.38L133.434 26.6ZM141.979 33.968C141.403 34.76 140.595 35.156 139.555 35.156C138.515 35.156 137.703 34.76 137.119 33.968C136.543 33.176 136.255 32.12 136.255 30.8C136.255 29.48 136.543 28.424 137.119 27.632C137.703 26.84 138.515 26.444 139.555 26.444C140.595 26.444 141.403 26.84 141.979 27.632C142.563 28.424 142.855 29.48 142.855 30.8C142.855 32.12 142.563 33.176 141.979 33.968ZM139.555 33.812C140.179 33.812 140.655 33.552 140.983 33.032C141.311 32.512 141.475 31.768 141.475 30.8C141.475 29.832 141.311 29.088 140.983 28.568C140.655 28.048 140.179 27.788 139.555 27.788C138.939 27.788 138.463 28.048 138.127 28.568C137.799 29.088 137.635 29.832 137.635 30.8C137.635 31.768 137.799 32.512 138.127 33.032C138.463 33.552 138.939 33.812 139.555 33.812ZM149.777 33.968C149.201 34.76 148.393 35.156 147.353 35.156C146.313 35.156 145.501 34.76 144.917 33.968C144.341 33.176 144.053 32.12 144.053 30.8C144.053 29.48 144.341 28.424 144.917 27.632C145.501 26.84 146.313 26.444 147.353 26.444C148.393 26.444 149.201 26.84 149.777 27.632C150.361 28.424 150.653 29.48 150.653 30.8C150.653 32.12 150.361 33.176 149.777 33.968ZM147.353 33.812C147.977 33.812 148.453 33.552 148.781 33.032C149.109 32.512 149.273 31.768 149.273 30.8C149.273 29.832 149.109 29.088 148.781 28.568C148.453 28.048 147.977 27.788 147.353 27.788C146.737 27.788 146.261 28.048 145.925 28.568C145.597 29.088 145.433 29.832 145.433 30.8C145.433 31.768 145.597 32.512 145.925 33.032C146.261 33.552 146.737 33.812 147.353 33.812ZM157.576 33.968C157 34.76 156.192 35.156 155.152 35.156C154.112 35.156 153.3 34.76 152.716 33.968C152.14 33.176 151.852 32.12 151.852 30.8C151.852 29.48 152.14 28.424 152.716 27.632C153.3 26.84 154.112 26.444 155.152 26.444C156.192 26.444 157 26.84 157.576 27.632C158.16 28.424 158.452 29.48 158.452 30.8C158.452 32.12 158.16 33.176 157.576 33.968ZM155.152 33.812C155.776 33.812 156.252 33.552 156.58 33.032C156.908 32.512 157.072 31.768 157.072 30.8C157.072 29.832 156.908 29.088 156.58 28.568C156.252 28.048 155.776 27.788 155.152 27.788C154.536 27.788 154.06 28.048 153.724 28.568C153.396 29.088 153.232 29.832 153.232 30.8C153.232 31.768 153.396 32.512 153.724 33.032C154.06 33.552 154.536 33.812 155.152 33.812Z" fill="white"/>
<path d="M37.0848 14.204C37.7942 14.372 38.3682 14.7033 38.8068 15.198C39.2548 15.6833 39.4788 16.2947 39.4788 17.032C39.4788 18.012 39.1475 18.782 38.4848 19.342C37.8222 19.902 37.0102 20.182 36.0488 20.182C35.3022 20.182 34.6302 20.0093 34.0328 19.664C33.4448 19.3187 33.0202 18.8147 32.7588 18.152L34.1308 17.354C34.4202 18.194 35.0595 18.614 36.0488 18.614C36.6088 18.614 37.0522 18.474 37.3788 18.194C37.7055 17.9047 37.8688 17.5173 37.8688 17.032C37.8688 16.5467 37.7055 16.164 37.3788 15.884C37.0522 15.604 36.6088 15.464 36.0488 15.464L35.6848 15.464L35.0408 14.498L37.1548 11.712L33.0528 11.712L33.0528 10.2L39.0728 10.2L39.0728 11.572L37.0848 14.204ZM40.615 20L40.615 18.74L44.031 15.254C44.8617 14.4233 45.277 13.7047 45.277 13.098C45.277 12.622 45.1323 12.2533 44.843 11.992C44.563 11.7213 44.2037 11.586 43.765 11.586C42.9437 11.586 42.337 11.992 41.945 12.804L40.587 12.006C40.895 11.3527 41.329 10.858 41.889 10.522C42.449 10.186 43.0697 10.018 43.751 10.018C44.6097 10.018 45.347 10.2887 45.963 10.83C46.579 11.3713 46.887 12.1087 46.887 13.042C46.887 14.0407 46.3317 15.1047 45.221 16.234L43.009 18.446L47.069 18.446L47.069 20L40.615 20Z" fill="white"/>
<path opacity="0.4" d="M39.1739 30.2L37.8299 30.2L37.6379 31.4L38.9819 31.4L38.8259 32.42L37.4699 32.42L37.1339 34.4L36.0659 34.4L36.4019 32.42L35.0579 32.42L34.7219 34.4L33.6539 34.4L33.9899 32.42L32.6219 32.42L32.7899 31.4L34.1579 31.4L34.3499 30.2L32.9819 30.2L33.1499 29.18L34.5299 29.18L34.8539 27.2L35.9219 27.2L35.5979 29.18L36.9419 29.18L37.2659 27.2L38.3339 27.2L38.0099 29.18L39.3419 29.18L39.1739 30.2ZM36.5699 31.4L36.7619 30.2L35.4179 30.2L35.2259 31.4L36.5699 31.4ZM43.1621 29.42C44.0341 29.42 44.7461 29.688 45.2981 30.224C45.8501 30.752 46.1261 31.44 46.1261 32.288C46.1261 33.136 45.8501 33.828 45.2981 34.364C44.7461 34.892 44.0341 35.156 43.1621 35.156C42.2821 35.156 41.5661 34.892 41.0141 34.364C40.4621 33.828 40.1861 33.136 40.1861 32.288C40.1861 31.648 40.3541 31.084 40.6901 30.596L43.3541 26.6L44.9261 26.6L43.0061 29.42L43.1621 29.42ZM43.1621 33.848C43.6261 33.848 44.0061 33.708 44.3021 33.428C44.5981 33.14 44.7461 32.76 44.7461 32.288C44.7461 31.816 44.5981 31.44 44.3021 31.16C44.0061 30.872 43.6261 30.728 43.1621 30.728C42.6901 30.728 42.3061 30.872 42.0101 31.16C41.7141 31.44 41.5661 31.816 41.5661 32.288C41.5661 32.76 41.7141 33.14 42.0101 33.428C42.3061 33.708 42.6901 33.848 43.1621 33.848ZM50.6146 30.032C51.2226 30.176 51.7146 30.46 52.0906 30.884C52.4746 31.3 52.6666 31.824 52.6666 32.456C52.6666 33.296 52.3826 33.956 51.8146 34.436C51.2466 34.916 50.5506 35.156 49.7266 35.156C49.0866 35.156 48.5106 35.008 47.9986 34.712C47.4946 34.416 47.1306 33.984 46.9066 33.416L48.0826 32.732C48.3306 33.452 48.8786 33.812 49.7266 33.812C50.2066 33.812 50.5866 33.692 50.8666 33.452C51.1466 33.204 51.2866 32.872 51.2866 32.456C51.2866 32.04 51.1466 31.712 50.8666 31.472C50.5866 31.232 50.2066 31.112 49.7266 31.112L49.4146 31.112L48.8626 30.284L50.6746 27.896L47.1586 27.896L47.1586 26.6L52.3186 26.6L52.3186 27.776L50.6146 30.032ZM60.2002 32.204L60.2002 33.488L59.2402 33.488L59.2402 35L57.8482 35L57.8482 33.488L53.7202 33.488L53.7202 32.204L56.6122 26.6L58.1122 26.6L55.2202 32.204L57.8482 32.204L57.8482 30.02L59.2402 30.02L59.2402 32.204L60.2002 32.204ZM64.0969 29.42C64.9689 29.42 65.6809 29.688 66.2329 30.224C66.7849 30.752 67.0609 31.44 67.0609 32.288C67.0609 33.136 66.7849 33.828 66.2329 34.364C65.6809 34.892 64.9689 35.156 64.0969 35.156C63.2169 35.156 62.5009 34.892 61.9489 34.364C61.3969 33.828 61.1209 33.136 61.1209 32.288C61.1209 31.648 61.2889 31.084 61.6249 30.596L64.2889 26.6L65.8609 26.6L63.9409 29.42L64.0969 29.42ZM64.0969 33.848C64.5609 33.848 64.9409 33.708 65.2369 33.428C65.5329 33.14 65.6809 32.76 65.6809 32.288C65.6809 31.816 65.5329 31.44 65.2369 31.16C64.9409 30.872 64.5609 30.728 64.0969 30.728C63.6249 30.728 63.2409 30.872 62.9449 31.16C62.6489 31.44 62.5009 31.816 62.5009 32.288C62.5009 32.76 62.6489 33.14 62.9449 33.428C63.2409 33.708 63.6249 33.848 64.0969 33.848ZM74.4732 32.204L74.4732 33.488L73.5132 33.488L73.5132 35L72.1212 35L72.1212 33.488L67.9932 33.488L67.9932 32.204L70.8852 26.6L72.3852 26.6L69.4932 32.204L72.1212 32.204L72.1212 30.02L73.5132 30.02L73.5132 32.204L74.4732 32.204Z" fill="white"/>
<path fill-rule="evenodd" clip-rule="evenodd" d="M6.21053 13C3.88512 13 2 14.8851 2 17.2105V28.7895C2 31.1149 3.88512 33 6.21053 33H17.7895C20.1149 33 22 31.1149 22 28.7895V17.2105C22 14.8851 20.1149 13 17.7895 13H6.21053ZM8.40667 18.2632H6.21053V27.7368H8.40667V18.2632ZM17.497 19.6301C16.6094 18.7188 15.5021 18.2632 14.1753 18.2632H10.332V27.7368H14.1753C15.5021 27.7368 16.6094 27.2857 17.497 26.3835C18.3937 25.4722 18.8421 24.3444 18.8421 23C18.8421 21.6556 18.3937 20.5323 17.497 19.6301ZM16.0146 24.9353C15.5479 25.4135 14.9348 25.6526 14.1753 25.6526H12.5282V20.3474H14.1753C14.9348 20.3474 15.5479 20.591 16.0146 21.0782C16.4904 21.5564 16.7283 22.197 16.7283 23C16.7283 23.803 16.4904 24.4481 16.0146 24.9353Z" fill="#FED500"/>
</svg>
