<svg width="238" height="232" viewBox="0 0 238 232" fill="none" xmlns="http://www.w3.org/2000/svg">
<rect opacity="0.4" width="113" height="32" rx="8" fill="#0D0D0D"/>
<rect opacity="0.4" width="32" height="32" rx="8" fill="#0D0D0D"/>
<path d="M19.02 19L17.448 19L15.6 15.964L13.752 19L12.18 19L14.82 14.68L12.336 10.6L13.896 10.6L15.6 13.396L17.304 10.6L18.876 10.6L16.392 14.68L19.02 19Z" fill="#FED500"/>
<path d="M52.76 11.6L52.76 20L51.656 20L51.656 13.436L48.908 18.008L48.764 18.008L46.016 13.448L46.016 20L44.9 20L44.9 11.6L46.16 11.6L48.836 16.04L51.5 11.6L52.76 11.6ZM55.2162 12.908C55.0162 12.908 54.8482 12.84 54.7122 12.704C54.5762 12.568 54.5082 12.404 54.5082 12.212C54.5082 12.02 54.5762 11.856 54.7122 11.72C54.8482 11.576 55.0162 11.504 55.2162 11.504C55.4082 11.504 55.5722 11.576 55.7082 11.72C55.8442 11.856 55.9122 12.02 55.9122 12.212C55.9122 12.404 55.8442 12.568 55.7082 12.704C55.5722 12.84 55.4082 12.908 55.2162 12.908ZM54.6882 20L54.6882 14L55.7322 14L55.7322 20L54.6882 20ZM62.641 20L61.345 20L58.609 17.156L58.609 20L57.565 20L57.565 14L58.609 14L58.609 16.652L61.201 14L62.545 14L59.677 16.904L62.641 20ZM67.1638 13.844C68.0038 13.844 68.7198 14.152 69.3118 14.768C69.9038 15.376 70.1998 16.12 70.1998 17C70.1998 17.88 69.9038 18.628 69.3118 19.244C68.7198 19.852 68.0038 20.156 67.1638 20.156C66.1718 20.156 65.4158 19.76 64.8958 18.968L64.8958 22.4L63.8518 22.4L63.8518 14L64.8958 14L64.8958 15.032C65.4158 14.24 66.1718 13.844 67.1638 13.844ZM67.0318 19.148C67.6318 19.148 68.1358 18.944 68.5438 18.536C68.9518 18.12 69.1558 17.608 69.1558 17C69.1558 16.392 68.9518 15.884 68.5438 15.476C68.1358 15.06 67.6318 14.852 67.0318 14.852C66.4238 14.852 65.9158 15.06 65.5078 15.476C65.0998 15.884 64.8958 16.392 64.8958 17C64.8958 17.608 65.0998 18.12 65.5078 18.536C65.9158 18.944 66.4238 19.148 67.0318 19.148ZM76.7496 19.244C76.1336 19.852 75.3856 20.156 74.5056 20.156C73.6256 20.156 72.8776 19.852 72.2616 19.244C71.6536 18.636 71.3496 17.888 71.3496 17C71.3496 16.112 71.6536 15.364 72.2616 14.756C72.8776 14.148 73.6256 13.844 74.5056 13.844C75.3856 13.844 76.1336 14.148 76.7496 14.756C77.3656 15.364 77.6736 16.112 77.6736 17C77.6736 17.888 77.3656 18.636 76.7496 19.244ZM74.5056 19.136C75.1056 19.136 75.6096 18.932 76.0176 18.524C76.4256 18.116 76.6296 17.608 76.6296 17C76.6296 16.392 76.4256 15.884 76.0176 15.476C75.6096 15.068 75.1056 14.864 74.5056 14.864C73.9136 14.864 73.4136 15.068 73.0056 15.476C72.5976 15.884 72.3936 16.392 72.3936 17C72.3936 17.608 72.5976 18.116 73.0056 18.524C73.4136 18.932 73.9136 19.136 74.5056 19.136ZM85.1683 14.9C85.7283 15.476 86.0083 16.176 86.0083 17C86.0083 17.824 85.7283 18.524 85.1683 19.1C84.6083 19.676 83.8603 20.016 82.9243 20.12L82.9243 22.4L81.8923 22.4L81.8923 20.12C80.9563 20.016 80.2083 19.676 79.6483 19.1C79.0883 18.524 78.8083 17.824 78.8083 17C78.8083 16.176 79.0883 15.476 79.6483 14.9C80.2083 14.324 80.9563 13.984 81.8923 13.88L81.8923 11.6L82.9243 11.6L82.9243 13.88C83.8603 13.984 84.6083 14.324 85.1683 14.9ZM79.8403 17C79.8403 17.552 80.0203 18.02 80.3803 18.404C80.7483 18.788 81.2523 19.024 81.8923 19.112L81.8923 14.888C81.2523 14.968 80.7483 15.2 80.3803 15.584C80.0203 15.968 79.8403 16.44 79.8403 17ZM82.9243 19.112C83.5643 19.024 84.0643 18.788 84.4243 18.404C84.7843 18.02 84.9643 17.552 84.9643 17C84.9643 16.448 84.7843 15.98 84.4243 15.596C84.0643 15.212 83.5643 14.976 82.9243 14.888L82.9243 19.112ZM92.546 19.244C91.93 19.852 91.182 20.156 90.302 20.156C89.422 20.156 88.674 19.852 88.058 19.244C87.45 18.636 87.146 17.888 87.146 17C87.146 16.112 87.45 15.364 88.058 14.756C88.674 14.148 89.422 13.844 90.302 13.844C91.182 13.844 91.93 14.148 92.546 14.756C93.162 15.364 93.47 16.112 93.47 17C93.47 17.888 93.162 18.636 92.546 19.244ZM90.302 19.136C90.902 19.136 91.406 18.932 91.814 18.524C92.222 18.116 92.426 17.608 92.426 17C92.426 16.392 92.222 15.884 91.814 15.476C91.406 15.068 90.902 14.864 90.302 14.864C89.71 14.864 89.21 15.068 88.802 15.476C88.394 15.884 88.19 16.392 88.19 17C88.19 17.608 88.394 18.116 88.802 18.524C89.21 18.932 89.71 19.136 90.302 19.136ZM99.0928 14L100.137 14L100.137 20L99.0928 20L99.0928 17.492L95.9848 17.492L95.9848 20L94.9408 20L94.9408 14L95.9848 14L95.9848 16.496L99.0928 16.496L99.0928 14Z" fill="white"/>
<rect opacity="0.4" y="40" width="88" height="32" rx="8" fill="#0D0D0D"/>
<rect opacity="0.4" y="40" width="32" height="32" rx="8" fill="#0D0D0D"/>
<path d="M18.3312 51.6L19.7112 51.6L19.7112 60L18.6312 60L14.6712 54.3L14.6712 60L13.2912 60L13.2912 51.6L14.3712 51.6L18.3312 57.3L18.3312 51.6Z" fill="#FED500"/>
<path d="M47.948 51.6C48.724 51.6 49.368 51.86 49.88 52.38C50.4 52.892 50.66 53.532 50.66 54.3C50.66 55.06 50.4 55.7 49.88 56.22C49.368 56.74 48.724 57 47.948 57L46.016 57L46.016 60L44.9 60L44.9 51.6L47.948 51.6ZM47.948 55.956C48.412 55.956 48.796 55.8 49.1 55.488C49.404 55.168 49.556 54.772 49.556 54.3C49.556 53.82 49.404 53.424 49.1 53.112C48.796 52.8 48.412 52.644 47.948 52.644L46.016 52.644L46.016 55.956L47.948 55.956ZM56.6211 54L57.6651 54L57.6651 60L56.6211 60L56.6211 58.968C56.1011 59.76 55.3451 60.156 54.3531 60.156C53.5131 60.156 52.7971 59.852 52.2051 59.244C51.6131 58.628 51.3171 57.88 51.3171 57C51.3171 56.12 51.6131 55.376 52.2051 54.768C52.7971 54.152 53.5131 53.844 54.3531 53.844C55.3451 53.844 56.1011 54.24 56.6211 55.032L56.6211 54ZM54.4851 59.148C55.0931 59.148 55.6011 58.944 56.0091 58.536C56.4171 58.12 56.6211 57.608 56.6211 57C56.6211 56.392 56.4171 55.884 56.0091 55.476C55.6011 55.06 55.0931 54.852 54.4851 54.852C53.8851 54.852 53.3811 55.06 52.9731 55.476C52.5651 55.884 52.3611 56.392 52.3611 57C52.3611 57.608 52.5651 58.12 52.9731 58.536C53.3811 58.944 53.8851 59.148 54.4851 59.148ZM64.5268 59.004L65.5108 59.004L65.5108 61.608L64.4788 61.608L64.4788 60L59.4868 60L59.4868 54L60.5308 54L60.5308 59.004L63.4828 59.004L63.4828 54L64.5268 54L64.5268 59.004ZM67.3916 52.908C67.1916 52.908 67.0236 52.84 66.8876 52.704C66.7516 52.568 66.6836 52.404 66.6836 52.212C66.6836 52.02 66.7516 51.856 66.8876 51.72C67.0236 51.576 67.1916 51.504 67.3916 51.504C67.5836 51.504 67.7476 51.576 67.8836 51.72C68.0196 51.856 68.0876 52.02 68.0876 52.212C68.0876 52.404 68.0196 52.568 67.8836 52.704C67.7476 52.84 67.5836 52.908 67.3916 52.908ZM66.8636 60L66.8636 54L67.9076 54L67.9076 60L66.8636 60ZM74.2283 54L74.2283 60L73.1963 60L73.1963 57.84L72.3203 57.84L70.6403 60L69.3683 60L71.1203 57.78C70.6723 57.668 70.3083 57.444 70.0283 57.108C69.7483 56.772 69.6083 56.38 69.6083 55.932C69.6083 55.38 69.8043 54.92 70.1963 54.552C70.5883 54.184 71.0803 54 71.6723 54L74.2283 54ZM71.7083 56.904L73.1963 56.904L73.1963 54.972L71.7083 54.972C71.4123 54.972 71.1603 55.06 70.9523 55.236C70.7443 55.412 70.6403 55.648 70.6403 55.944C70.6403 56.232 70.7443 56.464 70.9523 56.64C71.1603 56.816 71.4123 56.904 71.7083 56.904Z" fill="white"/>
<rect opacity="0.4" y="80" width="108" height="32" rx="8" fill="#0D0D0D"/>
<rect opacity="0.4" y="80" width="32" height="32" rx="8" fill="#0D0D0D"/>
<path d="M15.3107 91.6L16.6907 91.6L16.6907 100L15.3107 100L15.3107 91.6Z" fill="#FED500"/>
<path d="M44.9 91.6L46.016 91.6L46.016 100L44.9 100L44.9 91.6ZM52.102 94L53.146 94L53.146 100L52.102 100L52.102 97.492L48.994 97.492L48.994 100L47.95 100L47.95 94L48.994 94L48.994 96.496L52.102 96.496L52.102 94ZM58.9711 96.916C59.5871 97.172 59.8951 97.636 59.8951 98.308C59.8951 98.804 59.7271 99.212 59.3911 99.532C59.0631 99.844 58.5911 100 57.9751 100L54.9751 100L54.9751 94L57.7351 94C58.3351 94 58.7991 94.152 59.1271 94.456C59.4551 94.752 59.6191 95.144 59.6191 95.632C59.6191 96.208 59.4031 96.636 58.9711 96.916ZM57.6871 94.936L55.9951 94.936L55.9951 96.508L57.6871 96.508C58.2951 96.508 58.5991 96.24 58.5991 95.704C58.5991 95.192 58.2951 94.936 57.6871 94.936ZM57.9151 99.052C58.2191 99.052 58.4511 98.98 58.6111 98.836C58.7791 98.692 58.8631 98.488 58.8631 98.224C58.8631 97.976 58.7791 97.784 58.6111 97.648C58.4511 97.504 58.2191 97.432 57.9151 97.432L55.9951 97.432L55.9951 99.052L57.9151 99.052ZM61.994 97.48C62.098 98.016 62.342 98.432 62.726 98.728C63.118 99.024 63.598 99.172 64.166 99.172C64.958 99.172 65.534 98.88 65.894 98.296L66.782 98.8C66.198 99.704 65.318 100.156 64.142 100.156C63.19 100.156 62.414 99.86 61.814 99.268C61.222 98.668 60.926 97.912 60.926 97C60.926 96.096 61.218 95.344 61.802 94.744C62.386 94.144 63.142 93.844 64.07 93.844C64.95 93.844 65.666 94.156 66.218 94.78C66.778 95.396 67.058 96.14 67.058 97.012C67.058 97.164 67.046 97.32 67.022 97.48L61.994 97.48ZM64.07 94.828C63.51 94.828 63.046 94.988 62.678 95.308C62.31 95.62 62.082 96.04 61.994 96.568L66.002 96.568C65.914 96 65.69 95.568 65.33 95.272C64.97 94.976 64.55 94.828 64.07 94.828ZM72.6501 94L73.6941 94L73.6941 100L72.6501 100L72.6501 97.492L69.5421 97.492L69.5421 100L68.4981 100L68.4981 94L69.5421 94L69.5421 96.496L72.6501 96.496L72.6501 94ZM79.9873 94L79.9873 95.008L77.9473 95.008L77.9473 100L76.9033 100L76.9033 95.008L74.8513 95.008L74.8513 94L79.9873 94ZM85.8758 94L86.9198 94L86.9198 100L85.8758 100L85.8758 98.968C85.3558 99.76 84.5998 100.156 83.6078 100.156C82.7678 100.156 82.0518 99.852 81.4598 99.244C80.8678 98.628 80.5718 97.88 80.5718 97C80.5718 96.12 80.8678 95.376 81.4598 94.768C82.0518 94.152 82.7678 93.844 83.6078 93.844C84.5998 93.844 85.3558 94.24 85.8758 95.032L85.8758 94ZM83.7398 99.148C84.3478 99.148 84.8558 98.944 85.2638 98.536C85.6718 98.12 85.8758 97.608 85.8758 97C85.8758 96.392 85.6718 95.884 85.2638 95.476C84.8558 95.06 84.3478 94.852 83.7398 94.852C83.1398 94.852 82.6358 95.06 82.2278 95.476C81.8198 95.884 81.6158 96.392 81.6158 97C81.6158 97.608 81.8198 98.12 82.2278 98.536C82.6358 98.944 83.1398 99.148 83.7398 99.148ZM92.0535 93.844C92.8935 93.844 93.6095 94.152 94.2015 94.768C94.7935 95.376 95.0895 96.12 95.0895 97C95.0895 97.88 94.7935 98.628 94.2015 99.244C93.6095 99.852 92.8935 100.156 92.0535 100.156C91.0615 100.156 90.3055 99.76 89.7855 98.968L89.7855 102.4L88.7415 102.4L88.7415 94L89.7855 94L89.7855 95.032C90.3055 94.24 91.0615 93.844 92.0535 93.844ZM91.9215 99.148C92.5215 99.148 93.0255 98.944 93.4335 98.536C93.8415 98.12 94.0455 97.608 94.0455 97C94.0455 96.392 93.8415 95.884 93.4335 95.476C93.0255 95.06 92.5215 94.852 91.9215 94.852C91.3135 94.852 90.8055 95.06 90.3975 95.476C89.9895 95.884 89.7855 96.392 89.7855 97C89.7855 97.608 89.9895 98.12 90.3975 98.536C90.8055 98.944 91.3135 99.148 91.9215 99.148Z" fill="white"/>
<rect opacity="0.4" y="120" width="103" height="32" rx="8" fill="#0D0D0D"/>
<rect opacity="0.4" y="120" width="32" height="32" rx="8" fill="#0D0D0D"/>
<path d="M18.2964 139.364C17.7044 139.892 16.9404 140.156 16.0044 140.156C15.0684 140.156 14.3044 139.892 13.7124 139.364C13.1204 138.828 12.8244 138.112 12.8244 137.216L12.8244 131.6L14.2044 131.6L14.2044 137.132C14.2044 137.644 14.3524 138.052 14.6484 138.356C14.9524 138.66 15.4044 138.812 16.0044 138.812C16.6044 138.812 17.0524 138.66 17.3484 138.356C17.6524 138.052 17.8044 137.644 17.8044 137.132L17.8044 131.6L19.1844 131.6L19.1844 137.216C19.1844 138.112 18.8884 138.828 18.2964 139.364Z" fill="#FED500"/>
<path d="M50.432 140L49.748 138.116L45.968 138.116L45.284 140L44.096 140L47.228 131.6L48.488 131.6L51.62 140L50.432 140ZM46.352 137.072L49.364 137.072L47.852 132.932L46.352 137.072ZM56.8949 134L57.9389 134L57.9389 140L56.8949 140L56.8949 137.492L53.7869 137.492L53.7869 140L52.7429 140L52.7429 134L53.7869 134L53.7869 136.496L56.8949 136.496L56.8949 134ZM60.2961 132.908C60.0961 132.908 59.9281 132.84 59.7921 132.704C59.6561 132.568 59.5881 132.404 59.5881 132.212C59.5881 132.02 59.6561 131.856 59.7921 131.72C59.9281 131.576 60.0961 131.504 60.2961 131.504C60.4881 131.504 60.6521 131.576 60.7881 131.72C60.9241 131.856 60.9921 132.02 60.9921 132.212C60.9921 132.404 60.9241 132.568 60.7881 132.704C60.6521 132.84 60.4881 132.908 60.2961 132.908ZM59.7681 140L59.7681 134L60.8121 134L60.8121 140L59.7681 140ZM68.6448 134L68.6448 140L67.6248 140L67.6248 135.644L65.7168 138.716L65.5848 138.716L63.6768 135.644L63.6768 140L62.6448 140L62.6448 134L63.7608 134L65.6448 137.036L67.5288 134L68.6448 134ZM75.4466 134L76.4906 134L76.4906 140L75.4466 140L75.4466 138.968C74.9266 139.76 74.1706 140.156 73.1786 140.156C72.3386 140.156 71.6226 139.852 71.0306 139.244C70.4386 138.628 70.1426 137.88 70.1426 137C70.1426 136.12 70.4386 135.376 71.0306 134.768C71.6226 134.152 72.3386 133.844 73.1786 133.844C74.1706 133.844 74.9266 134.24 75.4466 135.032L75.4466 134ZM73.3106 139.148C73.9186 139.148 74.4266 138.944 74.8346 138.536C75.2426 138.12 75.4466 137.608 75.4466 137C75.4466 136.392 75.2426 135.884 74.8346 135.476C74.4266 135.06 73.9186 134.852 73.3106 134.852C72.7106 134.852 72.2066 135.06 71.7986 135.476C71.3906 135.884 71.1866 136.392 71.1866 137C71.1866 137.608 71.3906 138.12 71.7986 138.536C72.2066 138.944 72.7106 139.148 73.3106 139.148ZM83.3523 139.004L84.3363 139.004L84.3363 141.608L83.3043 141.608L83.3043 140L78.3123 140L78.3123 134L79.3563 134L79.3563 139.004L82.3083 139.004L82.3083 134L83.3523 134L83.3523 139.004ZM86.217 132.908C86.017 132.908 85.849 132.84 85.713 132.704C85.577 132.568 85.509 132.404 85.509 132.212C85.509 132.02 85.577 131.856 85.713 131.72C85.849 131.576 86.017 131.504 86.217 131.504C86.409 131.504 86.573 131.576 86.709 131.72C86.845 131.856 86.913 132.02 86.913 132.212C86.913 132.404 86.845 132.568 86.709 132.704C86.573 132.84 86.409 132.908 86.217 132.908ZM85.689 140L85.689 134L86.733 134L86.733 140L85.689 140ZM88.3978 133.028C88.2778 133.148 88.1298 133.208 87.9538 133.208C87.7778 133.208 87.6298 133.148 87.5098 133.028C87.3818 132.9 87.3178 132.748 87.3178 132.572C87.3178 132.396 87.3818 132.248 87.5098 132.128C87.6298 132.008 87.7778 131.948 87.9538 131.948C88.1298 131.948 88.2778 132.008 88.3978 132.128C88.5178 132.248 88.5778 132.396 88.5778 132.572C88.5778 132.748 88.5178 132.9 88.3978 133.028ZM90.6778 133.028C90.5578 133.148 90.4098 133.208 90.2338 133.208C90.0578 133.208 89.9058 133.148 89.7778 133.028C89.6578 132.9 89.5978 132.748 89.5978 132.572C89.5978 132.396 89.6578 132.248 89.7778 132.128C89.9058 132.008 90.0578 131.948 90.2338 131.948C90.4098 131.948 90.5578 132.008 90.6778 132.128C90.7978 132.248 90.8578 132.396 90.8578 132.572C90.8578 132.748 90.7978 132.9 90.6778 133.028ZM88.5658 140L88.5658 134L89.6098 134L89.6098 140L88.5658 140Z" fill="white"/>
<rect opacity="0.4" y="160" width="238" height="32" rx="8" fill="#0D0D0D"/>
<rect opacity="0.4" y="160" width="32" height="32" rx="8" fill="#0D0D0D"/>
<path d="M18.1219 175.644C18.4899 175.836 18.7779 176.1 18.9859 176.436C19.1939 176.772 19.2979 177.16 19.2979 177.6C19.2979 178.288 19.0539 178.86 18.5659 179.316C18.0779 179.772 17.4819 180 16.7779 180L13.1779 180L13.1779 171.6L16.5139 171.6C17.2019 171.6 17.7819 171.824 18.2539 172.272C18.7339 172.712 18.9739 173.264 18.9739 173.928C18.9739 174.656 18.6899 175.228 18.1219 175.644ZM16.5139 172.896L14.5579 172.896L14.5579 175.104L16.5139 175.104C16.8179 175.104 17.0739 175 17.2819 174.792C17.4899 174.576 17.5939 174.312 17.5939 174C17.5939 173.688 17.4899 173.428 17.2819 173.22C17.0739 173.004 16.8179 172.896 16.5139 172.896ZM16.7779 178.704C17.0979 178.704 17.3659 178.592 17.5819 178.368C17.8059 178.136 17.9179 177.856 17.9179 177.528C17.9179 177.2 17.8059 176.924 17.5819 176.7C17.3659 176.468 17.0979 176.352 16.7779 176.352L14.5579 176.352L14.5579 178.704L16.7779 178.704Z" fill="#FED500"/>
<path d="M48.98 175.656C49.412 175.84 49.748 176.108 49.988 176.46C50.228 176.812 50.348 177.228 50.348 177.708C50.348 178.428 50.076 179.016 49.532 179.472C48.996 179.928 48.284 180.156 47.396 180.156C46.588 180.156 45.936 179.976 45.44 179.616C44.952 179.256 44.608 178.792 44.408 178.224L45.356 177.684C45.604 178.628 46.284 179.1 47.396 179.1C47.98 179.1 48.432 178.972 48.752 178.716C49.072 178.452 49.232 178.104 49.232 177.672C49.232 177.24 49.08 176.892 48.776 176.628C48.48 176.364 48.064 176.232 47.528 176.232L46.544 176.232L46.544 175.212L47.252 175.212C47.764 175.212 48.172 175.088 48.476 174.84C48.78 174.584 48.932 174.252 48.932 173.844C48.932 173.444 48.788 173.12 48.5 172.872C48.22 172.616 47.828 172.488 47.324 172.488C46.396 172.488 45.776 172.9 45.464 173.724L44.528 173.184C45.032 172.024 45.964 171.444 47.324 171.444C48.132 171.444 48.784 171.668 49.28 172.116C49.784 172.564 50.036 173.132 50.036 173.82C50.036 174.62 49.684 175.232 48.98 175.656ZM56.7734 174L57.8174 174L57.8174 180L56.7734 180L56.7734 178.968C56.2534 179.76 55.4974 180.156 54.5054 180.156C53.6654 180.156 52.9494 179.852 52.3574 179.244C51.7654 178.628 51.4694 177.88 51.4694 177C51.4694 176.12 51.7654 175.376 52.3574 174.768C52.9494 174.152 53.6654 173.844 54.5054 173.844C55.4974 173.844 56.2534 174.24 56.7734 175.032L56.7734 174ZM54.6374 179.148C55.2454 179.148 55.7534 178.944 56.1614 178.536C56.5694 178.12 56.7734 177.608 56.7734 177C56.7734 176.392 56.5694 175.884 56.1614 175.476C55.7534 175.06 55.2454 174.852 54.6374 174.852C54.0374 174.852 53.5334 175.06 53.1254 175.476C52.7174 175.884 52.5134 176.392 52.5134 177C52.5134 177.608 52.7174 178.12 53.1254 178.536C53.5334 178.944 54.0374 179.148 54.6374 179.148ZM63.5752 174L63.5752 175.008L60.6832 175.008L60.6832 180L59.6392 180L59.6392 174L63.5752 174ZM69.3597 174L69.3597 180L68.3157 180L68.3157 175.008L65.9517 175.008L65.9517 177.456C65.9517 178.44 65.7517 179.128 65.3517 179.52C64.9597 179.904 64.4037 180.064 63.6837 180L63.6837 179.016C64.0917 179.072 64.3957 178.984 64.5957 178.752C64.8037 178.512 64.9077 178.072 64.9077 177.432L64.9077 174L69.3597 174ZM75.3697 174L76.4857 174L74.0377 180.372C73.7817 181.052 73.4217 181.568 72.9577 181.92C72.4937 182.28 71.9657 182.44 71.3737 182.4L71.3737 181.428C72.1097 181.484 72.6497 181.084 72.9937 180.228L73.0897 180.012L70.4857 174L71.5897 174L73.6417 178.704L75.3697 174ZM84.7735 174L85.8175 174L85.8175 180L77.5975 180L77.5975 174L78.6415 174L78.6415 179.004L81.1855 179.004L81.1855 174L82.2295 174L82.2295 179.004L84.7735 179.004L84.7735 174ZM92.0138 174L92.8538 174L92.8538 180L91.8218 180L91.8218 175.788L88.4978 180L87.6578 180L87.6578 174L88.6898 174L88.6898 178.212L92.0138 174ZM99.1469 174L99.1469 175.008L97.1069 175.008L97.1069 180L96.0629 180L96.0629 175.008L94.0109 175.008L94.0109 174L99.1469 174ZM104.658 174L105.498 174L105.498 180L104.466 180L104.466 175.788L101.142 180L100.302 180L100.302 174L101.334 174L101.334 178.212L104.658 174ZM107.615 181.2L106.991 181.2L111.791 170.4L112.415 170.4L107.615 181.2ZM117.147 176.928C117.811 177.2 118.143 177.676 118.143 178.356C118.143 178.86 117.943 179.288 117.543 179.64C117.143 179.984 116.575 180.156 115.839 180.156C114.639 180.156 113.835 179.676 113.427 178.716L114.303 178.2C114.535 178.856 115.051 179.184 115.851 179.184C116.251 179.184 116.559 179.1 116.775 178.932C116.999 178.756 117.111 178.532 117.111 178.26C117.111 178.02 117.019 177.824 116.835 177.672C116.659 177.52 116.419 177.444 116.115 177.444L115.239 177.444L115.239 176.496L115.887 176.496C116.191 176.496 116.427 176.424 116.595 176.28C116.763 176.128 116.847 175.924 116.847 175.668C116.847 175.412 116.747 175.204 116.547 175.044C116.355 174.884 116.087 174.804 115.743 174.804C115.071 174.804 114.615 175.088 114.375 175.656L113.523 175.164C113.947 174.284 114.687 173.844 115.743 173.844C116.399 173.844 116.915 174.012 117.291 174.348C117.675 174.684 117.867 175.096 117.867 175.584C117.867 176.192 117.627 176.64 117.147 176.928ZM124.482 174L125.526 174L125.526 180L124.482 180L124.482 178.968C123.962 179.76 123.206 180.156 122.214 180.156C121.374 180.156 120.658 179.852 120.066 179.244C119.474 178.628 119.178 177.88 119.178 177C119.178 176.12 119.474 175.376 120.066 174.768C120.658 174.152 121.374 173.844 122.214 173.844C123.206 173.844 123.962 174.24 124.482 175.032L124.482 174ZM122.346 179.148C122.954 179.148 123.462 178.944 123.87 178.536C124.278 178.12 124.482 177.608 124.482 177C124.482 176.392 124.278 175.884 123.87 175.476C123.462 175.06 122.954 174.852 122.346 174.852C121.746 174.852 121.242 175.06 120.834 175.476C120.426 175.884 120.222 176.392 120.222 177C120.222 177.608 120.426 178.12 120.834 178.536C121.242 178.944 121.746 179.148 122.346 179.148ZM131.344 176.916C131.96 177.172 132.268 177.636 132.268 178.308C132.268 178.804 132.1 179.212 131.764 179.532C131.436 179.844 130.964 180 130.348 180L127.348 180L127.348 174L130.108 174C130.708 174 131.172 174.152 131.5 174.456C131.828 174.752 131.992 175.144 131.992 175.632C131.992 176.208 131.776 176.636 131.344 176.916ZM130.06 174.936L128.368 174.936L128.368 176.508L130.06 176.508C130.668 176.508 130.972 176.24 130.972 175.704C130.972 175.192 130.668 174.936 130.06 174.936ZM130.288 179.052C130.592 179.052 130.824 178.98 130.984 178.836C131.152 178.692 131.236 178.488 131.236 178.224C131.236 177.976 131.152 177.784 130.984 177.648C130.824 177.504 130.592 177.432 130.288 177.432L128.368 177.432L128.368 179.052L130.288 179.052ZM134.367 177.48C134.471 178.016 134.715 178.432 135.099 178.728C135.491 179.024 135.971 179.172 136.539 179.172C137.331 179.172 137.907 178.88 138.267 178.296L139.155 178.8C138.571 179.704 137.691 180.156 136.515 180.156C135.563 180.156 134.787 179.86 134.187 179.268C133.595 178.668 133.299 177.912 133.299 177C133.299 176.096 133.591 175.344 134.175 174.744C134.759 174.144 135.515 173.844 136.443 173.844C137.323 173.844 138.039 174.156 138.591 174.78C139.151 175.396 139.431 176.14 139.431 177.012C139.431 177.164 139.419 177.32 139.395 177.48L134.367 177.48ZM136.443 174.828C135.883 174.828 135.419 174.988 135.051 175.308C134.683 175.62 134.455 176.04 134.367 176.568L138.375 176.568C138.287 176 138.063 175.568 137.703 175.272C137.343 174.976 136.923 174.828 136.443 174.828ZM143.679 180.156C142.775 180.156 142.023 179.856 141.423 179.256C140.823 178.648 140.523 177.896 140.523 177C140.523 176.104 140.823 175.356 141.423 174.756C142.023 174.148 142.775 173.844 143.679 173.844C144.271 173.844 144.803 173.988 145.275 174.276C145.747 174.556 146.099 174.936 146.331 175.416L145.455 175.92C145.303 175.6 145.067 175.344 144.747 175.152C144.435 174.96 144.079 174.864 143.679 174.864C143.079 174.864 142.575 175.068 142.167 175.476C141.767 175.884 141.567 176.392 141.567 177C141.567 177.6 141.767 178.104 142.167 178.512C142.575 178.92 143.079 179.124 143.679 179.124C144.079 179.124 144.439 179.032 144.759 178.848C145.079 178.656 145.323 178.4 145.491 178.08L146.379 178.596C146.123 179.068 145.755 179.448 145.275 179.736C144.795 180.016 144.263 180.156 143.679 180.156ZM152.02 174L152.02 175.008L149.98 175.008L149.98 180L148.936 180L148.936 175.008L146.884 175.008L146.884 174L152.02 174ZM157.531 174L158.371 174L158.371 180L157.339 180L157.339 175.788L154.015 180L153.175 180L153.175 174L154.207 174L154.207 178.212L157.531 174ZM167.904 174L167.904 175.008L165.864 175.008L165.864 180L164.82 180L164.82 175.008L162.768 175.008L162.768 174L167.904 174ZM172.371 173.844C173.211 173.844 173.927 174.152 174.519 174.768C175.111 175.376 175.407 176.12 175.407 177C175.407 177.88 175.111 178.628 174.519 179.244C173.927 179.852 173.211 180.156 172.371 180.156C171.379 180.156 170.623 179.76 170.103 178.968L170.103 182.4L169.059 182.4L169.059 174L170.103 174L170.103 175.032C170.623 174.24 171.379 173.844 172.371 173.844ZM172.239 179.148C172.839 179.148 173.343 178.944 173.751 178.536C174.159 178.12 174.363 177.608 174.363 177C174.363 176.392 174.159 175.884 173.751 175.476C173.343 175.06 172.839 174.852 172.239 174.852C171.631 174.852 171.123 175.06 170.715 175.476C170.307 175.884 170.103 176.392 170.103 177C170.103 177.608 170.307 178.12 170.715 178.536C171.123 178.944 171.631 179.148 172.239 179.148ZM181.861 174L182.905 174L182.905 180L181.861 180L181.861 178.968C181.341 179.76 180.585 180.156 179.593 180.156C178.753 180.156 178.037 179.852 177.445 179.244C176.853 178.628 176.557 177.88 176.557 177C176.557 176.12 176.853 175.376 177.445 174.768C178.037 174.152 178.753 173.844 179.593 173.844C180.585 173.844 181.341 174.24 181.861 175.032L181.861 174ZM179.725 179.148C180.333 179.148 180.841 178.944 181.249 178.536C181.657 178.12 181.861 177.608 181.861 177C181.861 176.392 181.657 175.884 181.249 175.476C180.841 175.06 180.333 174.852 179.725 174.852C179.125 174.852 178.621 175.06 178.213 175.476C177.805 175.884 177.601 176.392 177.601 177C177.601 177.608 177.805 178.12 178.213 178.536C178.621 178.944 179.125 179.148 179.725 179.148ZM188.879 174L189.923 174L189.923 180L188.879 180L188.879 177.492L185.771 177.492L185.771 180L184.727 180L184.727 174L185.771 174L185.771 176.496L188.879 176.496L188.879 174ZM194.572 180.156C193.668 180.156 192.916 179.856 192.316 179.256C191.716 178.648 191.416 177.896 191.416 177C191.416 176.104 191.716 175.356 192.316 174.756C192.916 174.148 193.668 173.844 194.572 173.844C195.164 173.844 195.696 173.988 196.168 174.276C196.64 174.556 196.992 174.936 197.224 175.416L196.348 175.92C196.196 175.6 195.96 175.344 195.64 175.152C195.328 174.96 194.972 174.864 194.572 174.864C193.972 174.864 193.468 175.068 193.06 175.476C192.66 175.884 192.46 176.392 192.46 177C192.46 177.6 192.66 178.104 193.06 178.512C193.468 178.92 193.972 179.124 194.572 179.124C194.972 179.124 195.332 179.032 195.652 178.848C195.972 178.656 196.216 178.4 196.384 178.08L197.272 178.596C197.016 179.068 196.648 179.448 196.168 179.736C195.688 180.016 195.156 180.156 194.572 180.156ZM203.75 174L203.75 180L202.706 180L202.706 174.996L199.598 174.996L199.598 180L198.554 180L198.554 174L203.75 174ZM210.643 179.244C210.027 179.852 209.279 180.156 208.399 180.156C207.519 180.156 206.771 179.852 206.155 179.244C205.547 178.636 205.243 177.888 205.243 177C205.243 176.112 205.547 175.364 206.155 174.756C206.771 174.148 207.519 173.844 208.399 173.844C209.279 173.844 210.027 174.148 210.643 174.756C211.259 175.364 211.567 176.112 211.567 177C211.567 177.888 211.259 178.636 210.643 179.244ZM208.399 179.136C208.999 179.136 209.503 178.932 209.911 178.524C210.319 178.116 210.523 177.608 210.523 177C210.523 176.392 210.319 175.884 209.911 175.476C209.503 175.068 208.999 174.864 208.399 174.864C207.807 174.864 207.307 175.068 206.899 175.476C206.491 175.884 206.287 176.392 206.287 177C206.287 177.608 206.491 178.116 206.899 178.524C207.307 178.932 207.807 179.136 208.399 179.136ZM216.35 173.844C217.19 173.844 217.906 174.152 218.498 174.768C219.09 175.376 219.386 176.12 219.386 177C219.386 177.88 219.09 178.628 218.498 179.244C217.906 179.852 217.19 180.156 216.35 180.156C215.358 180.156 214.602 179.76 214.082 178.968L214.082 182.4L213.038 182.4L213.038 174L214.082 174L214.082 175.032C214.602 174.24 215.358 173.844 216.35 173.844ZM216.218 179.148C216.818 179.148 217.322 178.944 217.73 178.536C218.138 178.12 218.342 177.608 218.342 177C218.342 176.392 218.138 175.884 217.73 175.476C217.322 175.06 216.818 174.852 216.218 174.852C215.61 174.852 215.102 175.06 214.694 175.476C214.286 175.884 214.082 176.392 214.082 177C214.082 177.608 214.286 178.12 214.694 178.536C215.102 178.944 215.61 179.148 216.218 179.148ZM225.101 174L225.101 175.008L223.061 175.008L223.061 180L222.017 180L222.017 175.008L219.965 175.008L219.965 174L225.101 174Z" fill="white"/>
<rect opacity="0.4" y="200" width="88" height="32" rx="8" fill="#0D0D0D"/>
<rect opacity="0.4" y="200" width="32" height="32" rx="8" fill="#0D0D0D"/>
<path d="M11.5248 211.6L11.5248 212.92L9.16084 212.92L9.16084 220L7.78084 220L7.78084 212.92L5.40484 212.92L5.40484 211.6L11.5248 211.6ZM17.6597 220L17.0717 218.308L13.4957 218.308L12.9077 220L11.4077 220L14.4557 211.6L16.1117 211.6L19.1477 220L17.6597 220ZM13.9517 217.012L16.6157 217.012L15.2837 213.22L13.9517 217.012ZM25.2349 215.644C25.6029 215.836 25.8909 216.1 26.0989 216.436C26.3069 216.772 26.4109 217.16 26.4109 217.6C26.4109 218.288 26.1669 218.86 25.6789 219.316C25.1909 219.772 24.5949 220 23.8909 220L20.2909 220L20.2909 211.6L23.6269 211.6C24.3149 211.6 24.8949 211.824 25.3669 212.272C25.8469 212.712 26.0869 213.264 26.0869 213.928C26.0869 214.656 25.8029 215.228 25.2349 215.644ZM23.6269 212.896L21.6709 212.896L21.6709 215.104L23.6269 215.104C23.9309 215.104 24.1869 215 24.3949 214.792C24.6029 214.576 24.7069 214.312 24.7069 214C24.7069 213.688 24.6029 213.428 24.3949 213.22C24.1869 213.004 23.9309 212.896 23.6269 212.896ZM23.8909 218.704C24.2109 218.704 24.4789 218.592 24.6949 218.368C24.9189 218.136 25.0309 217.856 25.0309 217.528C25.0309 217.2 24.9189 216.924 24.6949 216.7C24.4789 216.468 24.2109 216.352 23.8909 216.352L21.6709 216.352L21.6709 218.704L23.8909 218.704Z" fill="#FED500"/>
<path d="M48.056 214.9C48.784 214.9 49.4 215.148 49.904 215.644C50.408 216.132 50.66 216.732 50.66 217.444C50.66 218.172 50.408 218.78 49.904 219.268C49.408 219.756 48.792 220 48.056 220L44.9 220L44.9 211.6L49.94 211.6L49.94 212.656L46.016 212.656L46.016 214.9L48.056 214.9ZM48.056 218.956C48.472 218.956 48.824 218.812 49.112 218.524C49.408 218.236 49.556 217.876 49.556 217.444C49.556 217.02 49.408 216.664 49.112 216.376C48.824 216.088 48.472 215.944 48.056 215.944L46.016 215.944L46.016 218.956L48.056 218.956ZM52.5795 212.908C52.3795 212.908 52.2115 212.84 52.0755 212.704C51.9395 212.568 51.8715 212.404 51.8715 212.212C51.8715 212.02 51.9395 211.856 52.0755 211.72C52.2115 211.576 52.3795 211.504 52.5795 211.504C52.7715 211.504 52.9355 211.576 53.0715 211.72C53.2075 211.856 53.2755 212.02 53.2755 212.212C53.2755 212.404 53.2075 212.568 53.0715 212.704C52.9355 212.84 52.7715 212.908 52.5795 212.908ZM52.0515 220L52.0515 214L53.0955 214L53.0955 220L52.0515 220ZM59.0802 214L60.1242 214L60.1242 220L59.0802 220L59.0802 217.492L55.9722 217.492L55.9722 220L54.9282 220L54.9282 214L55.9722 214L55.9722 216.496L59.0802 216.496L59.0802 214ZM67.1134 219.004L67.9414 219.004L67.9414 221.608L66.9094 221.608L66.9094 220L62.4094 220L62.4094 221.608L61.3774 221.608L61.3774 219.004L62.1094 219.004C62.4934 218.476 62.6854 217.736 62.6854 216.784L62.6854 214L67.1134 214L67.1134 219.004ZM63.2974 219.004L66.0814 219.004L66.0814 214.972L63.7174 214.972L63.7174 216.784C63.7174 217.68 63.5774 218.42 63.2974 219.004ZM73.6627 214L74.5027 214L74.5027 220L73.4707 220L73.4707 215.788L70.1467 220L69.3067 220L69.3067 214L70.3387 214L70.3387 218.212L73.6627 214Z" fill="white"/>
</svg>
