<svg width="124" height="24" viewBox="0 0 124 24" fill="none" xmlns="http://www.w3.org/2000/svg">
<path d="M35.152 5.8L36.752 5.8L36.752 17L34.912 17L34.912 7.768L32.656 8.408L32.208 6.84L35.152 5.8ZM46.5451 15.624C45.7771 16.68 44.6998 17.208 43.3131 17.208C41.9265 17.208 40.8438 16.68 40.0651 15.624C39.2971 14.568 38.9131 13.16 38.9131 11.4C38.9131 9.64 39.2971 8.232 40.0651 7.176C40.8438 6.12 41.9265 5.592 43.3131 5.592C44.6998 5.592 45.7771 6.12 46.5451 7.176C47.3238 8.232 47.7131 9.64 47.7131 11.4C47.7131 13.16 47.3238 14.568 46.5451 15.624ZM43.3131 15.416C44.1451 15.416 44.7798 15.0693 45.2171 14.376C45.6545 13.6827 45.8731 12.6907 45.8731 11.4C45.8731 10.1093 45.6545 9.11733 45.2171 8.424C44.7798 7.73067 44.1451 7.384 43.3131 7.384C42.4918 7.384 41.8571 7.73067 41.4091 8.424C40.9718 9.11733 40.7531 10.1093 40.7531 11.4C40.7531 12.6907 40.9718 13.6827 41.4091 14.376C41.8571 15.0693 42.4918 15.416 43.3131 15.416ZM57.3592 9.56C58.5219 9.56 59.4712 9.91733 60.2072 10.632C60.9432 11.336 61.3112 12.2533 61.3112 13.384C61.3112 14.5147 60.9432 15.4373 60.2072 16.152C59.4712 16.856 58.5219 17.208 57.3592 17.208C56.1859 17.208 55.2312 16.856 54.4952 16.152C53.7592 15.4373 53.3912 14.5147 53.3912 13.384C53.3912 12.5307 53.6152 11.7787 54.0632 11.128L57.6152 5.8L59.7112 5.8L57.1512 9.56L57.3592 9.56ZM57.3592 15.464C57.9779 15.464 58.4846 15.2773 58.8792 14.904C59.2739 14.52 59.4712 14.0133 59.4712 13.384C59.4712 12.7547 59.2739 12.2533 58.8792 11.88C58.4846 11.496 57.9779 11.304 57.3592 11.304C56.7299 11.304 56.2179 11.496 55.8232 11.88C55.4286 12.2533 55.2312 12.7547 55.2312 13.384C55.2312 14.0133 55.4286 14.52 55.8232 14.904C56.2179 15.2773 56.7299 15.464 57.3592 15.464ZM68.798 11.176C69.8967 11.784 70.446 12.6907 70.446 13.896C70.446 14.92 70.0887 15.7307 69.374 16.328C68.6593 16.9147 67.71 17.208 66.526 17.208C65.342 17.208 64.3873 16.9147 63.662 16.328C62.9473 15.7307 62.59 14.92 62.59 13.896C62.59 13.32 62.734 12.7973 63.022 12.328C63.31 11.848 63.7153 11.464 64.238 11.176C63.3953 10.6213 62.974 9.832 62.974 8.808C62.974 7.784 63.3153 6.99467 63.998 6.44C64.6807 5.87467 65.5233 5.592 66.526 5.592C67.518 5.592 68.3553 5.87467 69.038 6.44C69.7313 6.99467 70.078 7.784 70.078 8.808C70.078 9.832 69.6513 10.6213 68.798 11.176ZM66.526 7.336C66.0247 7.336 65.614 7.46933 65.294 7.736C64.974 8.00267 64.814 8.38667 64.814 8.888C64.814 9.368 64.974 9.74667 65.294 10.024C65.6247 10.3013 66.0353 10.44 66.526 10.44C67.006 10.44 67.4113 10.3013 67.742 10.024C68.0727 9.74667 68.238 9.368 68.238 8.888C68.238 8.38667 68.0727 8.00267 67.742 7.736C67.422 7.46933 67.0167 7.336 66.526 7.336ZM66.526 15.464C67.1447 15.464 67.646 15.3147 68.03 15.016C68.414 14.7067 68.606 14.2747 68.606 13.72C68.606 13.1653 68.414 12.7387 68.03 12.44C67.646 12.1307 67.1447 11.976 66.526 11.976C65.8967 11.976 65.39 12.1307 65.006 12.44C64.622 12.7387 64.43 13.1653 64.43 13.72C64.43 14.2747 64.622 14.7067 65.006 15.016C65.39 15.3147 65.8967 15.464 66.526 15.464ZM71.6585 17L71.6585 15.56L75.5625 11.576C76.5118 10.6267 76.9865 9.80533 76.9865 9.112C76.9865 8.568 76.8212 8.14667 76.4905 7.848C76.1705 7.53867 75.7598 7.384 75.2585 7.384C74.3198 7.384 73.6265 7.848 73.1785 8.776L71.6265 7.864C71.9785 7.11733 72.4745 6.552 73.1145 6.168C73.7545 5.784 74.4638 5.592 75.2425 5.592C76.2238 5.592 77.0665 5.90133 77.7705 6.52C78.4745 7.13867 78.8265 7.98133 78.8265 9.048C78.8265 10.1893 78.1918 11.4053 76.9225 12.696L74.3945 15.224L79.0345 15.224L79.0345 17L71.6585 17ZM84.7673 17L84.7673 15.56L88.6713 11.576C89.6206 10.6267 90.0953 9.80533 90.0953 9.112C90.0953 8.568 89.9299 8.14667 89.5993 7.848C89.2793 7.53867 88.8686 7.384 88.3673 7.384C87.4286 7.384 86.7353 7.848 86.2873 8.776L84.7353 7.864C85.0873 7.11733 85.5833 6.552 86.2233 6.168C86.8633 5.784 87.5726 5.592 88.3513 5.592C89.3326 5.592 90.1753 5.90133 90.8793 6.52C91.5833 7.13867 91.9353 7.98133 91.9353 9.048C91.9353 10.1893 91.3006 11.4053 90.0313 12.696L87.5033 15.224L92.1433 15.224L92.1433 17L84.7673 17ZM98.2478 10.376C99.0584 10.568 99.7144 10.9467 100.216 11.512C100.728 12.0667 100.984 12.7653 100.984 13.608C100.984 14.728 100.605 15.608 99.8478 16.248C99.0904 16.888 98.1624 17.208 97.0638 17.208C96.2104 17.208 95.4424 17.0107 94.7598 16.616C94.0878 16.2213 93.6024 15.6453 93.3038 14.888L94.8718 13.976C95.2024 14.936 95.9331 15.416 97.0638 15.416C97.7038 15.416 98.2104 15.256 98.5838 14.936C98.9571 14.6053 99.1438 14.1627 99.1438 13.608C99.1438 13.0533 98.9571 12.616 98.5838 12.296C98.2104 11.976 97.7038 11.816 97.0638 11.816L96.6478 11.816L95.9118 10.712L98.3278 7.528L93.6398 7.528L93.6398 5.8L100.52 5.8L100.52 7.368L98.2478 10.376ZM102.282 17L102.282 15.56L106.186 11.576C107.136 10.6267 107.61 9.80533 107.61 9.112C107.61 8.568 107.445 8.14667 107.114 7.848C106.794 7.53867 106.384 7.384 105.882 7.384C104.944 7.384 104.25 7.848 103.802 8.776L102.25 7.864C102.602 7.11733 103.098 6.552 103.738 6.168C104.378 5.784 105.088 5.592 105.866 5.592C106.848 5.592 107.69 5.90133 108.394 6.52C109.098 7.13867 109.45 7.98133 109.45 9.048C109.45 10.1893 108.816 11.4053 107.546 12.696L105.018 15.224L109.658 15.224L109.658 17L102.282 17Z" fill="white"/>
<path d="M123.199 13.928C123.199 14.8347 122.906 15.576 122.319 16.152C121.743 16.7173 120.986 17.0587 120.047 17.176L120.047 18.6L119.007 18.6L119.007 17.192C118.122 17.1387 117.364 16.8987 116.735 16.472C116.106 16.0453 115.652 15.464 115.375 14.728L116.959 13.816C117.332 14.7547 118.015 15.2773 119.007 15.384L119.007 12.056C118.527 11.8747 118.138 11.7147 117.839 11.576C117.54 11.4267 117.22 11.224 116.879 10.968C116.548 10.712 116.298 10.4027 116.127 10.04C115.967 9.66667 115.887 9.23467 115.887 8.744C115.887 7.848 116.186 7.12267 116.783 6.568C117.38 6.01333 118.122 5.69333 119.007 5.608L119.007 4.2L120.047 4.2L120.047 5.624C121.476 5.816 122.468 6.54667 123.023 7.816L121.471 8.712C121.194 8.01867 120.719 7.59733 120.047 7.448L120.047 10.616C120.388 10.744 120.644 10.8453 120.815 10.92C120.996 10.9947 121.231 11.1067 121.519 11.256C121.818 11.4053 122.047 11.5547 122.207 11.704C122.367 11.8533 122.532 12.0347 122.703 12.248C122.884 12.4613 123.012 12.712 123.087 13C123.162 13.2773 123.199 13.5867 123.199 13.928ZM117.727 8.744C117.727 9.07467 117.823 9.34667 118.015 9.56C118.218 9.77333 118.548 9.98667 119.007 10.2L119.007 7.416C118.612 7.48 118.298 7.62933 118.063 7.864C117.839 8.09867 117.727 8.392 117.727 8.744ZM120.047 15.368C120.474 15.2827 120.799 15.112 121.023 14.856C121.247 14.6 121.359 14.296 121.359 13.944C121.359 13.592 121.252 13.3093 121.039 13.096C120.826 12.872 120.495 12.6587 120.047 12.456L120.047 15.368Z" fill="#FED500"/>
<path fill-rule="evenodd" clip-rule="evenodd" d="M17.7689 8.3818H22C22 4.98459 19.9644 3 16.5156 3H7.48444C4.03556 3 2 4.98459 2 8.33847V15.6615C2 19.0154 4.03556 21 7.48444 21H16.5156C19.9644 21 22 19.0154 22 15.6615V15.3495H17.7689C15.8052 15.3495 14.2133 13.7975 14.2133 11.883C14.2133 9.96849 15.8052 8.41647 17.7689 8.41647V8.3818ZM17.7689 9.87241H21.2533C21.6657 9.87241 22 10.1983 22 10.6004V13.131C21.9952 13.5311 21.6637 13.8543 21.2533 13.8589H17.8489C16.8548 13.872 15.9855 13.2084 15.76 12.2643C15.6471 11.6783 15.8056 11.0736 16.1931 10.6122C16.5805 10.1509 17.1573 9.88008 17.7689 9.87241ZM17.92 12.533H18.2489C18.6711 12.533 19.0133 12.1993 19.0133 11.7877C19.0133 11.3761 18.6711 11.0424 18.2489 11.0424H17.92C17.7181 11.0401 17.5236 11.1166 17.38 11.255C17.2364 11.3934 17.1555 11.5821 17.1556 11.779C17.1555 12.1921 17.4964 12.5282 17.92 12.533ZM6.73778 8.3818H12.3822C12.8044 8.3818 13.1467 8.04812 13.1467 7.63649C13.1467 7.22487 12.8044 6.89119 12.3822 6.89119H6.73778C6.31903 6.89116 5.9782 7.2196 5.97333 7.62783C5.97331 8.04087 6.31415 8.37705 6.73778 8.3818Z" fill="#FED500"/>
</svg>
