<svg width="120" height="24" viewBox="0 0 120 24" fill="none" xmlns="http://www.w3.org/2000/svg">
<g opacity="0.3">
<path d="M7 4V6H10V8H7L5 10V13H3V10H1V18H3V15H5V18H8L10 20H18V16H20V19H23V9H20V12H18V8H12V6H15V4H7Z" fill="white"/>
</g>
<g opacity="0.3">
<path d="M46.6149 3C45.6062 3.0009 44.6119 3.24028 43.7134 3.69859C42.8148 4.1569 42.0375 4.82115 41.4447 5.6371C40.852 6.45304 40.4607 7.39756 40.3028 8.39353C40.1449 9.38949 40.2248 10.4087 40.5362 11.3678L35.9369 15.9647C35.8776 16.024 35.8306 16.0945 35.7985 16.1721C35.7664 16.2496 35.7499 16.3327 35.75 16.4167V19.6111C35.75 19.7806 35.8173 19.9431 35.9372 20.0629C36.057 20.1827 36.2196 20.25 36.3891 20.25H39.5847C39.7542 20.25 39.9167 20.1827 40.0366 20.0629C40.1565 19.9431 40.2238 19.7806 40.2238 19.6111V18.3333H41.502C41.6715 18.3333 41.8341 18.266 41.9539 18.1462C42.0738 18.0264 42.1411 17.8639 42.1411 17.6944V16.4167H43.4194C43.5033 16.4167 43.5865 16.4003 43.664 16.3682C43.7416 16.3361 43.8121 16.2891 43.8715 16.2298L44.6353 15.4655C45.5137 15.7506 46.4434 15.842 47.3606 15.7334C48.2777 15.6248 49.1604 15.3189 49.9479 14.8365C50.7353 14.3542 51.4089 13.707 51.9221 12.9395C52.4354 12.172 52.7761 11.3024 52.921 10.3906C53.0658 9.47881 53.0112 8.54648 52.7609 7.6578C52.5107 6.76912 52.0708 5.94522 51.4714 5.24281C50.8721 4.5404 50.1276 3.97618 49.2892 3.589C48.4508 3.20182 47.5384 3.00087 46.6149 3ZM48.2127 9.06944C47.9599 9.06944 47.7128 8.9945 47.5026 8.8541C47.2923 8.7137 47.1285 8.51413 47.0318 8.28065C46.935 8.04717 46.9097 7.79025 46.959 7.54238C47.0084 7.29452 47.1301 7.06684 47.3089 6.88814C47.4876 6.70944 47.7154 6.58774 47.9633 6.53844C48.2113 6.48914 48.4683 6.51444 48.7019 6.61115C48.9354 6.70787 49.135 6.87164 49.2755 7.08177C49.416 7.2919 49.4909 7.53895 49.4909 7.79167C49.4909 8.13055 49.3563 8.45556 49.1165 8.69519C48.8768 8.93482 48.5517 9.06944 48.2127 9.06944Z" fill="white"/>
</g>
<g opacity="0.3">
<path d="M70.2673 14.2937C69.9523 13.9778 69.9523 13.4624 70.2673 13.1465L72.5603 10.8535C72.8754 10.5384 73.3916 10.5384 73.7067 10.8535L77.1465 14.2937C77.4616 14.6087 77.4616 15.125 77.1465 15.44L74.8535 17.733C74.5376 18.0481 74.0222 18.0481 73.7063 17.733L69.7109 21.7285L66.2716 18.2892L70.2673 14.2937ZM74.2804 16.0133L75.4269 14.8668L73.1332 12.5731L71.9867 13.7196L74.2804 16.0133Z" fill="white"/>
<path d="M76.0001 9.70714L76.5731 9.13389V6.84036L78.8661 4.54752L79.4392 5.12146L82.2892 2.27148L85.7285 5.71081L82.8784 8.56096L83.4523 9.13403L81.1593 11.427H78.8658L78.2929 11.9999C77.9778 12.3151 77.4616 12.3151 77.1465 11.9999L76 10.8534C75.6848 10.5384 75.6848 10.0221 76 9.70709L76.0001 9.70714ZM78.1945 9.80553H80.4873L81.1588 9.13405L78.866 6.84051L78.1945 7.51182V9.80553Z" fill="white"/>
</g>
<g opacity="0.3">
<path d="M110.667 7.8C110.667 7.61435 110.737 7.4363 110.862 7.30503C110.987 7.17375 111.157 7.1 111.333 7.1H117.333C117.51 7.1 117.68 7.17375 117.805 7.30503C117.93 7.4363 118 7.61435 118 7.8C118 7.98565 117.93 8.1637 117.805 8.29497C117.68 8.42625 117.51 8.5 117.333 8.5H111.333C111.157 8.5 110.987 8.42625 110.862 8.29497C110.737 8.1637 110.667 7.98565 110.667 7.8ZM117.333 15.5H111.333C111.157 15.5 110.987 15.5737 110.862 15.705C110.737 15.8363 110.667 16.0143 110.667 16.2C110.667 16.3857 110.737 16.5637 110.862 16.695C110.987 16.8263 111.157 16.9 111.333 16.9H117.333C117.51 16.9 117.68 16.8263 117.805 16.695C117.93 16.5637 118 16.3857 118 16.2C118 16.0143 117.93 15.8363 117.805 15.705C117.68 15.5737 117.51 15.5 117.333 15.5ZM117.333 9.9H111.333C111.157 9.9 110.987 9.97375 110.862 10.105C110.737 10.2363 110.667 10.4143 110.667 10.6C110.667 10.7857 110.737 10.9637 110.862 11.095C110.987 11.2263 111.157 11.3 111.333 11.3H117.333C117.51 11.3 117.68 11.2263 117.805 11.095C117.93 10.9637 118 10.7857 118 10.6C118 10.4143 117.93 10.2363 117.805 10.105C117.68 9.97375 117.51 9.9 117.333 9.9ZM117.333 12.7H111.333C111.157 12.7 110.987 12.7737 110.862 12.905C110.737 13.0363 110.667 13.2143 110.667 13.4C110.667 13.5857 110.737 13.7637 110.862 13.895C110.987 14.0263 111.157 14.1 111.333 14.1H117.333C117.51 14.1 117.68 14.0263 117.805 13.895C117.93 13.7637 118 13.5857 118 13.4C118 13.2143 117.93 13.0363 117.805 12.905C117.68 12.7737 117.51 12.7 117.333 12.7ZM108 5H104.742C101.052 5 98.0277 8.11675 98.0002 11.9466C97.9935 12.8704 98.161 13.7864 98.493 14.6418C98.825 15.4973 99.315 16.2752 99.9347 16.9309C100.554 17.5866 101.292 18.107 102.104 18.4621C102.916 18.8172 103.787 19 104.667 19H108C108.354 19 108.693 18.8525 108.943 18.5899C109.193 18.3274 109.333 17.9713 109.333 17.6V6.4C109.333 6.0287 109.193 5.6726 108.943 5.41005C108.693 5.1475 108.354 5 108 5Z" fill="white"/>
</g>
</svg>
