<svg width="111" height="72" viewBox="0 0 111 72" fill="none" xmlns="http://www.w3.org/2000/svg">
<path d="M74.405 15.664C74.405 19.0773 73.509 22.0853 71.717 24.688L57.573 46H49.125L59.365 30.96H58.597C53.9463 30.96 50.1277 29.552 47.141 26.736C44.197 23.8773 42.725 20.1867 42.725 15.664C42.725 11.1413 44.197 7.472 47.141 4.656C50.1277 1.79733 53.9463 0.367996 58.597 0.367996C63.2477 0.367996 67.045 1.79733 69.989 4.656C72.933 7.472 74.405 11.1413 74.405 15.664ZM50.085 15.664C50.085 18.1387 50.8743 20.144 52.453 21.68C54.0743 23.216 56.1223 23.984 58.597 23.984C61.0717 23.984 63.0983 23.2373 64.677 21.744C66.2557 20.208 67.045 18.1813 67.045 15.664C67.045 13.1467 66.2557 11.1413 64.677 9.648C63.0983 8.112 61.0717 7.344 58.597 7.344C56.1223 7.344 54.0743 8.112 52.453 9.648C50.8743 11.1413 50.085 13.1467 50.085 15.664ZM109.28 15.664C109.28 19.0773 108.384 22.0853 106.592 24.688L92.448 46H84L94.24 30.96H93.472C88.8213 30.96 85.0027 29.552 82.016 26.736C79.072 23.8773 77.6 20.1867 77.6 15.664C77.6 11.1413 79.072 7.472 82.016 4.656C85.0027 1.79733 88.8213 0.367996 93.472 0.367996C98.1227 0.367996 101.92 1.79733 104.864 4.656C107.808 7.472 109.28 11.1413 109.28 15.664ZM84.96 15.664C84.96 18.1387 85.7493 20.144 87.328 21.68C88.9493 23.216 90.9973 23.984 93.472 23.984C95.9467 23.984 97.9733 23.2373 99.552 21.744C101.131 20.208 101.92 18.1813 101.92 15.664C101.92 13.1467 101.131 11.1413 99.552 9.648C97.9733 8.112 95.9467 7.344 93.472 7.344C90.9973 7.344 88.9493 8.112 87.328 9.648C85.7493 11.1413 84.96 13.1467 84.96 15.664Z" fill="#FED500"/>
<path opacity="0.4" d="M33.4318 40.496C30.3598 44.72 26.0504 46.832 20.5038 46.832C14.9571 46.832 10.6264 44.72 7.51175 40.496C4.43975 36.272 2.90375 30.64 2.90375 23.6C2.90375 16.56 4.43975 10.928 7.51175 6.704C10.6264 2.48 14.9571 0.367996 20.5038 0.367996C26.0504 0.367996 30.3598 2.48 33.4318 6.704C36.5464 10.928 38.1038 16.56 38.1038 23.6C38.1038 30.64 36.5464 36.272 33.4318 40.496ZM20.5038 39.664C23.8318 39.664 26.3704 38.2773 28.1198 35.504C29.8691 32.7307 30.7438 28.7627 30.7438 23.6C30.7438 18.4373 29.8691 14.4693 28.1198 11.696C26.3704 8.92267 23.8318 7.536 20.5038 7.536C17.2184 7.536 14.6798 8.92267 12.8878 11.696C11.1384 14.4693 10.2638 18.4373 10.2638 23.6C10.2638 28.7627 11.1384 32.7307 12.8878 35.504C14.6798 38.2773 17.2184 39.664 20.5038 39.664Z" fill="white"/>
<path opacity="0.4" d="M36.2878 62.76L42.7198 69H40.6078L34.6078 63.216V69H33.0238V57H34.6078V62.304L40.3198 57H42.4798L36.2878 62.76ZM54.8191 57H56.6431V69H55.0591V59.424L50.8591 66.24H50.6671L46.4671 59.424V69H44.8831V57H46.7071L50.7631 63.576L54.8191 57ZM70.0803 49.8L60.4803 71.4H59.2803L68.8803 49.8H70.0803ZM72.7269 57H80.4069V58.536H74.3109V69H72.7269V57Z" fill="white"/>
</svg>
