<svg width="152" height="24" viewBox="0 0 152 24" fill="none" xmlns="http://www.w3.org/2000/svg">
<g opacity="0.3">
<path d="M5.825 22L7.45 14.975L2 10.25L9.2 9.625L12 3L14.8 9.625L22 10.25L16.55 14.975L18.175 22L12 18.275L5.825 22Z" fill="white"/>
<path d="M37.825 22L39.45 14.975L34 10.25L41.2 9.625L44 3L46.8 9.625L54 10.25L48.55 14.975L50.175 22L44 18.275L37.825 22Z" fill="white"/>
<path d="M69.825 22L71.45 14.975L66 10.25L73.2 9.625L76 3L78.8 9.625L86 10.25L80.55 14.975L82.175 22L76 18.275L69.825 22Z" fill="white"/>
<path d="M101.825 22L103.45 14.975L98 10.25L105.2 9.625L108 3L110.8 9.625L118 10.25L112.55 14.975L114.175 22L108 18.275L101.825 22Z" fill="white"/>
<path d="M133.825 22L135.45 14.975L130 10.25L137.2 9.625L140 3L142.8 9.625L150 10.25L144.55 14.975L146.175 22L140 18.275L133.825 22Z" fill="white"/>
</g>
</svg>
