<svg width="153" height="45" viewBox="0 0 153 45" fill="none" xmlns="http://www.w3.org/2000/svg">
<rect opacity="0.4" width="153" height="45" rx="8" fill="#0D0D0D"/>
<path d="M53.36 9.8L53.36 21L51.52 21L51.52 11.56L46.96 11.56L46.96 21L45.12 21L45.12 9.8L53.36 9.8ZM62.1484 13L63.8764 13L63.8764 21L62.1484 21L62.1484 19.848C61.4977 20.7547 60.5644 21.208 59.3484 21.208C58.2497 21.208 57.311 20.8027 56.5324 19.992C55.7537 19.1707 55.3644 18.1733 55.3644 17C55.3644 15.816 55.7537 14.8187 56.5324 14.008C57.311 13.1973 58.2497 12.792 59.3484 12.792C60.5644 12.792 61.4977 13.24 62.1484 14.136L62.1484 13ZM57.8124 18.84C58.2924 19.32 58.895 19.56 59.6204 19.56C60.3457 19.56 60.9484 19.32 61.4284 18.84C61.9084 18.3493 62.1484 17.736 62.1484 17C62.1484 16.264 61.9084 15.656 61.4284 15.176C60.9484 14.6853 60.3457 14.44 59.6204 14.44C58.895 14.44 58.2924 14.6853 57.8124 15.176C57.3324 15.656 57.0924 16.264 57.0924 17C57.0924 17.736 57.3324 18.3493 57.8124 18.84ZM71.6025 13L73.4425 13L70.3705 21.256C69.9972 22.2693 69.4745 23.0267 68.8025 23.528C68.1305 24.0293 67.3518 24.2533 66.4665 24.2L66.4665 22.584C67.0105 22.616 67.4478 22.504 67.7785 22.248C68.1198 22.0027 68.3918 21.6027 68.5945 21.048L68.6425 20.936L65.2825 13L67.1225 13L69.5545 18.824L71.6025 13ZM75.8905 17.736C76.0185 18.344 76.3118 18.8133 76.7705 19.144C77.2292 19.464 77.7892 19.624 78.4505 19.624C79.3678 19.624 80.0558 19.2933 80.5145 18.632L81.9385 19.464C81.1492 20.6267 79.9812 21.208 78.4345 21.208C77.1332 21.208 76.0825 20.8133 75.2825 20.024C74.4825 19.224 74.0825 18.216 74.0825 17C74.0825 15.8053 74.4772 14.808 75.2665 14.008C76.0558 13.1973 77.0692 12.792 78.3065 12.792C79.4798 12.792 80.4398 13.2027 81.1865 14.024C81.9438 14.8453 82.3225 15.8427 82.3225 17.016C82.3225 17.1973 82.3012 17.4373 82.2585 17.736L75.8905 17.736ZM75.8745 16.328L80.5785 16.328C80.4612 15.6773 80.1892 15.1867 79.7625 14.856C79.3465 14.5253 78.8558 14.36 78.2905 14.36C77.6505 14.36 77.1172 14.536 76.6905 14.888C76.2638 15.24 75.9918 15.72 75.8745 16.328ZM88.691 12.792C89.7897 12.792 90.7283 13.2027 91.507 14.024C92.2857 14.8347 92.675 15.8267 92.675 17C92.675 18.184 92.2857 19.1813 91.507 19.992C90.7283 20.8027 89.7897 21.208 88.691 21.208C87.475 21.208 86.5417 20.76 85.891 19.864L85.891 24.2L84.163 24.2L84.163 13L85.891 13L85.891 14.152C86.5417 13.2453 87.475 12.792 88.691 12.792ZM86.611 18.84C87.091 19.32 87.6937 19.56 88.419 19.56C89.1443 19.56 89.747 19.32 90.227 18.84C90.707 18.3493 90.947 17.736 90.947 17C90.947 16.264 90.707 15.656 90.227 15.176C89.747 14.6853 89.1443 14.44 88.419 14.44C87.6937 14.44 87.091 14.6853 86.611 15.176C86.131 15.656 85.891 16.264 85.891 17C85.891 17.736 86.131 18.3493 86.611 18.84ZM94.6731 16.968L94.6731 15.304L100.593 15.304L100.593 16.968L94.6731 16.968ZM106.813 21.208C105.608 21.208 104.6 20.8027 103.789 19.992C102.989 19.1813 102.589 18.184 102.589 17C102.589 15.8053 102.989 14.808 103.789 14.008C104.6 13.1973 105.608 12.792 106.813 12.792C107.592 12.792 108.301 12.9787 108.941 13.352C109.581 13.7253 110.061 14.2267 110.381 14.856L108.893 15.72C108.712 15.336 108.435 15.0373 108.061 14.824C107.699 14.6 107.277 14.488 106.797 14.488C106.093 14.488 105.501 14.728 105.021 15.208C104.552 15.688 104.317 16.2853 104.317 17C104.317 17.7147 104.552 18.312 105.021 18.792C105.501 19.272 106.093 19.512 106.797 19.512C107.267 19.512 107.688 19.4 108.061 19.176C108.445 18.952 108.733 18.6533 108.925 18.28L110.413 19.128C110.072 19.768 109.581 20.2747 108.941 20.648C108.301 21.0213 107.592 21.208 106.813 21.208ZM118.016 13L118.016 14.664L115.408 14.664L115.408 21L113.68 21L113.68 14.664L111.056 14.664L111.056 13L118.016 13ZM124.033 12.792C125.132 12.792 126.071 13.2027 126.849 14.024C127.628 14.8347 128.017 15.8267 128.017 17C128.017 18.184 127.628 19.1813 126.849 19.992C126.071 20.8027 125.132 21.208 124.033 21.208C122.817 21.208 121.884 20.76 121.233 19.864L121.233 24.2L119.505 24.2L119.505 13L121.233 13L121.233 14.152C121.884 13.2453 122.817 12.792 124.033 12.792ZM121.953 18.84C122.433 19.32 123.036 19.56 123.761 19.56C124.487 19.56 125.089 19.32 125.569 18.84C126.049 18.3493 126.289 17.736 126.289 17C126.289 16.264 126.049 15.656 125.569 15.176C125.089 14.6853 124.487 14.44 123.761 14.44C123.036 14.44 122.433 14.6853 121.953 15.176C121.473 15.656 121.233 16.264 121.233 17C121.233 17.736 121.473 18.3493 121.953 18.84ZM131.536 11.48C131.322 11.6933 131.066 11.8 130.768 11.8C130.469 11.8 130.208 11.6933 129.984 11.48C129.77 11.256 129.664 10.9947 129.664 10.696C129.664 10.3973 129.77 10.1413 129.984 9.928C130.197 9.704 130.458 9.592 130.768 9.592C131.077 9.592 131.338 9.704 131.552 9.928C131.765 10.1413 131.872 10.3973 131.872 10.696C131.872 10.9947 131.76 11.256 131.536 11.48ZM129.904 21L129.904 13L131.632 13L131.632 21L129.904 21ZM140.07 13L140.07 14.664L137.462 14.664L137.462 21L135.734 21L135.734 14.664L133.11 14.664L133.11 13L140.07 13Z" fill="white"/>
<path opacity="0.5" d="M50.432 36L49.748 34.116L45.968 34.116L45.284 36L44.096 36L47.228 27.6L48.488 27.6L51.62 36L50.432 36ZM46.352 33.072L49.364 33.072L47.852 28.932L46.352 33.072ZM57.7821 30L57.7821 36L56.7381 36L56.7381 31.008L54.3741 31.008L54.3741 33.456C54.3741 34.44 54.1741 35.128 53.7741 35.52C53.3821 35.904 52.8261 36.064 52.1061 36L52.1061 35.016C52.5141 35.072 52.8181 34.984 53.0181 34.752C53.2261 34.512 53.3301 34.072 53.3301 33.432L53.3301 30L57.7821 30ZM62.136 32.16C62.736 32.16 63.232 32.34 63.624 32.7C64.024 33.052 64.224 33.512 64.224 34.08C64.224 34.648 64.024 35.112 63.624 35.472C63.232 35.824 62.736 36 62.136 36L59.604 36L59.604 30L60.648 30L60.648 32.16L62.136 32.16ZM62.136 35.028C62.432 35.028 62.68 34.944 62.88 34.776C63.088 34.6 63.192 34.368 63.192 34.08C63.192 33.792 63.088 33.56 62.88 33.384C62.68 33.208 62.432 33.12 62.136 33.12L60.648 33.12L60.648 35.028L62.136 35.028ZM69.3588 30L69.3588 31.008L67.3188 31.008L67.3188 36L66.2748 36L66.2748 31.008L64.2228 31.008L64.2228 30L69.3588 30ZM75.2473 30L76.2913 30L76.2913 36L75.2473 36L75.2473 34.968C74.7273 35.76 73.9713 36.156 72.9793 36.156C72.1393 36.156 71.4233 35.852 70.8313 35.244C70.2393 34.628 69.9433 33.88 69.9433 33C69.9433 32.12 70.2393 31.376 70.8313 30.768C71.4233 30.152 72.1393 29.844 72.9793 29.844C73.9713 29.844 74.7273 30.24 75.2473 31.032L75.2473 30ZM73.1113 35.148C73.7193 35.148 74.2273 34.944 74.6353 34.536C75.0433 34.12 75.2473 33.608 75.2473 33C75.2473 32.392 75.0433 31.884 74.6353 31.476C74.2273 31.06 73.7193 30.852 73.1113 30.852C72.5113 30.852 72.0073 31.06 71.5993 31.476C71.1913 31.884 70.9873 32.392 70.9873 33C70.9873 33.608 71.1913 34.12 71.5993 34.536C72.0073 34.944 72.5113 35.148 73.1113 35.148Z" fill="white"/>
<path fill-rule="evenodd" clip-rule="evenodd" d="M24.5742 32.8187C24.2295 33.0604 23.7699 33.0601 23.4253 32.8184L23.4228 32.8166L23.4172 32.8127L23.3986 32.7994C23.3829 32.7882 23.3607 32.7722 23.3325 32.7517C23.2762 32.7106 23.1956 32.6511 23.0943 32.5741C22.8917 32.4203 22.6058 32.1962 22.2641 31.9101C21.5823 31.3389 20.6711 30.5139 19.7569 29.4988C17.9637 27.5076 16 24.6105 16 21.3636C16 19.1613 16.8312 17.0397 18.3255 15.4678C19.8214 13.8941 21.8615 13 24 13C26.1385 13 28.1786 13.8941 29.6745 15.4678C31.1688 17.0397 32 19.1613 32 21.3636C32 24.6105 30.0363 27.5076 28.2431 29.4988C27.3289 30.5139 26.4177 31.3389 25.7359 31.9101C25.3942 32.1962 25.1083 32.4203 24.9057 32.5741C24.8044 32.6511 24.7238 32.7106 24.6675 32.7517C24.6393 32.7722 24.6171 32.7882 24.6014 32.7994L24.5828 32.8127L24.5772 32.8166L24.5754 32.8179L24.5742 32.8187ZM21 21C21 19.3431 22.3431 18 24 18C25.6569 18 27 19.3431 27 21C27 22.6569 25.6569 24 24 24C22.3431 24 21 22.6569 21 21Z" fill="#FED500"/>
</svg>
